<svg width="817" height="845" viewBox="0 0 817 845" fill="none" xmlns="http://www.w3.org/2000/svg">
<path d="M551.442 416.838C546.355 417.424 541.22 417.424 536.132 416.838C541.22 416.253 546.355 416.253 551.442 416.838Z" fill="#FAFAFA"/>
<path d="M777.784 799.843C777.784 800.097 612.472 800.299 408.598 800.299C204.724 800.299 39.314 800.097 39.314 799.843C39.314 799.59 204.577 799.37 408.5 799.37C612.423 799.37 777.784 799.607 777.784 799.843Z" fill="#263238"/>
<path d="M630.038 704.443C637.995 698.528 646.1 692.528 655.316 689.064C664.531 685.599 675.185 684.923 683.911 689.571C691.215 693.458 696.476 700.725 699.499 708.634C703.229 718.455 703.858 729.246 701.296 739.459C699.907 744.969 697.146 750.664 692.081 752.895C687.015 755.126 681.182 753.199 676.149 750.867C659.633 743.192 645.326 731.214 634.629 716.104C635.705 715.215 637.01 714.674 638.382 714.547C639.754 714.421 641.131 714.716 642.342 715.394C644.734 716.79 646.91 718.55 648.796 720.616C655.185 726.603 662.893 730.885 671.247 733.088C677.424 734.778 685.741 734.018 687.816 727.782C689.172 723.709 687.015 719.332 684.924 715.631C682.538 711.355 679.809 706.775 675.332 705.068C671.966 703.801 668.257 704.409 664.727 705.068L626.198 711.912L628.583 711.186" fill="#455A64"/>
<path d="M533.844 166.955C508.436 159.621 470.788 169.828 456.409 192.694C442.03 215.559 448.37 249.495 447.242 276.738C446.115 303.98 447.242 331.663 440.853 358.145C436.834 375.045 429.138 391.945 414.987 401.324C398.81 411.971 374.562 413.019 366.898 431.204C360.51 446.414 370.428 465.004 363.974 480.214C361.13 486.974 355.362 492.044 352.879 498.888C349.447 508.386 353.206 519.438 359.954 526.79C366.702 534.141 375.934 538.451 385.134 542C413.16 552.617 442.95 557.357 472.765 555.942C494.448 554.895 517.717 549.588 531.932 532.637C543.093 519.32 546.769 501.068 548.795 483.627C561.246 375.755 563.501 257.167 533.844 167.124" fill="#263238"/>
<path d="M392.16 494.308C392.372 494.19 391.212 492.162 390.052 488.123C388.534 482.411 388.211 476.431 389.104 470.581C390.458 461.907 393.589 453.632 398.287 446.312C403.5 437.997 411.049 430.189 419.333 422.5C427.618 414.81 435.869 407.696 442.52 400.277C448.518 393.784 453.511 386.374 457.324 378.307C459.871 372.844 461.454 366.955 461.997 360.916C462.111 359.279 462.111 357.636 461.997 355.998C461.997 354.866 461.866 354.308 461.785 354.308C461.294 354.173 462.602 364.111 456.033 377.698C452.119 385.506 447.114 392.676 441.18 398.975C434.644 406.225 426.36 413.239 418.01 420.945C409.66 428.652 402.046 436.645 396.768 445.264C391.993 452.834 388.901 461.406 387.715 470.361C386.931 476.4 387.49 482.544 389.349 488.326C389.87 489.882 390.526 491.387 391.31 492.821C391.523 493.356 391.809 493.857 392.16 494.308Z" fill="#455A64"/>
<path d="M456.066 687.509L447.569 797.95L702.849 799.252L633.453 698.325L456.066 687.509Z" fill="#263238"/>
<path d="M254.25 421.875C254.969 422.517 239.299 508.994 231.374 552.292C230.051 559.536 230.718 567.018 233.3 573.889C235.882 580.76 240.276 586.744 245.982 591.162C251.878 595.721 258.925 598.416 266.27 598.92C273.616 599.424 280.945 597.715 287.371 594.001L393.663 536.795L361.114 466.305L294.12 505.631L298.532 432.302L254.25 421.875Z" fill="#FFBE9D"/>
<path d="M290.542 353.108C289.79 350.016 286.015 348.613 283.009 349.39C280.077 350.453 277.464 352.288 275.427 354.714L266.832 360.105C265.21 361.218 263.875 362.723 262.941 364.49C262.007 366.257 261.503 368.232 261.473 370.245C261.43 374.263 262.032 378.261 263.254 382.075C264.153 385.455 265.427 389.291 268.581 390.525C272.094 391.877 275.983 389.072 277.633 385.59C279.283 382.109 279.447 378.137 280.313 374.369C281.357 369.848 283.423 365.649 286.342 362.116C288.516 359.463 291.375 356.488 290.542 353.108Z" fill="#EB996E"/>
<path d="M219.136 356.59C218.87 355.728 218.813 354.812 218.971 353.922C219.129 353.032 219.496 352.196 220.041 351.488C220.585 350.779 221.289 350.221 222.092 349.861C222.895 349.501 223.77 349.351 224.642 349.424C242.093 350.912 283.548 356.911 308.14 364.229C343.009 374.605 365.967 381.315 365.967 381.315L440.02 379.625C440.02 379.625 431.131 406.023 402.912 406.158C381.555 406.259 359.153 392.063 359.153 392.063C359.153 392.063 264.25 358.635 224.397 360.443C223.233 360.496 222.085 360.149 221.133 359.454C220.181 358.76 219.478 357.759 219.136 356.607V356.59Z" fill="#455A64"/>
<path d="M426.18 379.844C427.095 382.531 424.072 384.914 421.376 385.421C418.68 385.928 415.592 385.793 413.647 387.787C412.957 388.644 412.454 389.645 412.172 390.721C411.89 391.797 411.836 392.924 412.013 394.023C412.399 396.214 412.655 398.426 412.781 400.648C412.823 402.158 412.316 403.63 411.359 404.772C409.415 406.817 405.837 406.124 403.957 404.028C402.236 401.75 401.299 398.943 401.294 396.051C401.27 394.004 400.978 391.969 400.428 390.001C400.138 389.018 399.598 388.132 398.866 387.437C398.133 386.741 397.234 386.261 396.261 386.047C393.925 385.742 391.866 387.568 389.627 388.379C388.454 388.722 387.223 388.799 386.018 388.604C384.813 388.408 383.664 387.945 382.648 387.247C381.633 386.548 380.776 385.631 380.136 384.557C379.496 383.484 379.088 382.279 378.941 381.027L426.18 379.844Z" fill="#407BFF"/>
<path d="M245.819 352.382C244.658 353.05 243.457 353.643 242.224 354.156C236.247 356.667 229.777 357.664 223.352 357.063C222.027 356.951 220.712 356.748 219.414 356.455C219.414 356.455 219.789 356.455 220.459 356.607C221.129 356.759 222.093 356.827 223.352 356.928C226.545 357.194 229.758 357.08 232.927 356.59C236.092 356.096 239.193 355.241 242.175 354.038C243.319 353.565 244.234 353.159 244.855 352.838L245.819 352.382Z" fill="#263238"/>
<path d="M278.303 357.232H277.993L277.11 357.131C276.342 357.029 275.231 356.928 273.842 356.843C270.249 356.621 266.643 356.814 263.091 357.418C259.542 358.043 256.068 359.063 252.731 360.46C251.456 361.018 250.427 361.491 249.741 361.846L248.94 362.235L248.646 362.353C248.646 362.353 248.728 362.353 248.907 362.167L249.675 361.711C250.362 361.322 251.309 360.815 252.649 360.24C255.978 358.758 259.467 357.697 263.042 357.08C266.616 356.473 270.247 356.308 273.859 356.59C275.248 356.708 276.359 356.86 277.127 356.996L278.009 357.165L278.303 357.232Z" fill="#263238"/>
<path d="M302.584 369.958L299.169 368.91L295.182 367.659C294.318 367.459 293.532 366.993 292.927 366.324C292.776 366.124 292.674 365.888 292.632 365.638C292.589 365.387 292.606 365.13 292.682 364.888C292.771 364.636 292.917 364.409 293.107 364.227C293.297 364.045 293.527 363.912 293.777 363.84C294.842 363.504 295.98 363.504 297.045 363.84C298.14 364.06 299.283 364.313 300.444 364.651C302.915 365.371 305.317 366.327 307.617 367.507C308.826 368.133 310.051 368.826 311.244 369.603C311.878 369.954 312.434 370.438 312.878 371.023C312.992 371.187 313.064 371.379 313.086 371.58C313.109 371.781 313.083 371.984 313.009 372.172C312.836 372.528 312.546 372.809 312.192 372.966C309.327 374.108 306.226 374.463 303.189 373.997C296.898 373.169 291.587 370.042 286.849 367.474C282.721 364.945 278.24 363.092 273.564 361.981C270.397 361.291 267.114 361.419 264.005 362.353C263.165 362.627 262.351 362.977 261.571 363.401C261.048 363.705 260.77 363.84 260.77 363.84L261.44 363.35C262.212 362.912 263.021 362.55 263.858 362.268C266.982 361.302 270.29 361.157 273.483 361.846C278.173 362.943 282.671 364.784 286.816 367.305C291.571 369.873 296.881 372.983 303.156 373.811C306.159 374.268 309.226 373.919 312.061 372.797C312.389 372.666 312.657 372.413 312.813 372.087C312.871 371.923 312.89 371.748 312.87 371.575C312.851 371.401 312.792 371.236 312.699 371.09C312.25 370.528 311.694 370.068 311.065 369.738C309.899 368.972 308.693 368.273 307.453 367.643C305.159 366.462 302.763 365.506 300.297 364.786C299.153 364.448 298.009 364.178 296.914 363.941C295.895 363.637 294.813 363.637 293.793 363.941C293.562 364.016 293.35 364.142 293.172 364.312C292.994 364.481 292.854 364.69 292.764 364.922C292.69 365.145 292.671 365.384 292.708 365.617C292.746 365.85 292.837 366.069 292.976 366.257C293.568 366.914 294.336 367.373 295.182 367.575L299.169 368.842L302.584 369.958Z" fill="#263238"/>
<path d="M319.807 368.42C320.101 368.941 320.301 369.514 320.395 370.11C320.661 371.491 320.495 372.923 319.921 374.2C319.316 375.461 318.344 376.495 317.143 377.157C316.636 377.441 316.082 377.624 315.509 377.698C316.027 377.521 316.53 377.301 317.013 377.039C318.195 376.39 319.148 375.369 319.733 374.124C320.317 372.878 320.503 371.472 320.264 370.11C320.156 369.535 320.003 368.97 319.807 368.42Z" fill="#263238"/>
<path d="M349.872 376.549C349.872 376.549 348.238 376.549 345.689 376.38C343.14 376.211 339.545 375.822 335.591 375.771C332.246 375.646 328.911 376.221 325.787 377.461C325.222 377.673 324.676 377.933 324.153 378.239C323.759 378.433 323.386 378.671 323.042 378.949L322.11 379.591L322.993 378.898C323.334 378.606 323.707 378.357 324.104 378.154C324.626 377.837 325.172 377.566 325.738 377.343C328.9 376.071 332.283 375.496 335.673 375.653C339.643 375.653 343.189 376.143 345.771 376.329C347.062 376.431 348.107 376.515 348.826 376.549H349.872Z" fill="#263238"/>
<path d="M381.228 402.051C381.228 402.051 380.64 401.527 379.594 400.547C379.072 400.057 378.418 399.465 377.634 398.857C376.849 398.248 376 397.437 374.954 396.677C372.592 394.827 370.12 393.134 367.552 391.607C361.265 387.895 354.465 385.205 347.388 383.63C344.507 382.971 341.586 382.508 338.646 382.244C337.388 382.075 336.244 382.058 335.248 382.008C334.251 381.957 333.385 382.008 332.682 382.008H330.493H332.682C333.385 382.008 334.316 382.008 335.248 382.008C336.179 382.008 337.388 382.008 338.646 382.21C341.596 382.468 344.527 382.92 347.421 383.562C350.96 384.353 354.443 385.392 357.846 386.672C361.217 388.041 364.493 389.651 367.65 391.488C370.22 393.013 372.692 394.706 375.052 396.558C376.081 397.302 376.931 398.096 377.715 398.755C378.5 399.415 379.137 399.989 379.643 400.445C380.722 401.493 381.228 402.051 381.228 402.051Z" fill="#263238"/>
<path d="M402.65 402.626C402.132 402.917 401.584 403.149 401.016 403.318C399.498 403.795 397.911 403.995 396.327 403.91C393.974 403.756 391.672 403.137 389.546 402.085C386.965 400.761 384.587 399.053 382.487 397.015C380.216 394.885 378.238 392.688 376.408 390.728C374.807 388.941 373.111 387.249 371.327 385.658C370.125 384.601 368.846 383.641 367.503 382.785C367.029 382.498 366.653 382.261 366.392 382.126L366.016 381.94C367.966 382.913 369.784 384.146 371.425 385.607C373.211 387.178 374.918 388.842 376.539 390.593C378.386 392.553 380.363 394.75 382.618 396.863C384.704 398.895 387.066 400.603 389.627 401.933C391.736 402.986 394.022 403.606 396.36 403.758C397.929 403.866 399.506 403.689 401.016 403.234C401.43 403.114 401.834 402.962 402.226 402.778L402.65 402.626Z" fill="#263238"/>
<path d="M430.706 394.497H430.15C429.775 394.497 429.252 394.497 428.598 394.497C426.891 394.5 425.188 394.681 423.516 395.037C421.828 395.415 420.184 395.981 418.614 396.727C418.026 396.998 417.536 397.251 417.226 397.437C417.06 397.54 416.885 397.625 416.703 397.691C417.296 397.282 417.919 396.92 418.565 396.609C421.669 395.059 425.087 394.3 428.533 394.395C429.259 394.379 429.985 394.413 430.706 394.497Z" fill="#263238"/>
<path d="M226.799 401.257L226.015 385.455C225.928 383.753 226.381 382.067 227.306 380.656L227.404 380.503C230.036 376.464 233.467 373.049 237.469 370.482L270.394 349.374C270.88 349.061 271.431 348.876 272.001 348.834C272.572 348.792 273.143 348.894 273.666 349.132C274.19 349.37 274.649 349.737 275.004 350.2C275.359 350.663 275.6 351.209 275.705 351.79C276.113 354.579 274.921 360.933 272.535 363.468C268.303 367.452 263.668 370.954 258.711 373.912L291.734 367.288C292.504 369.469 292.49 371.863 291.695 374.035C290.9 376.206 289.377 378.01 287.404 379.118L300.983 376.143C300.983 376.143 305.427 382.684 299.349 386.993C293.27 391.303 282.47 395.037 282.47 395.037C282.47 395.037 299.316 402.389 298.924 408.253C298.532 414.118 298.303 432.91 298.303 432.91L253.041 429.53L226.799 401.257Z" fill="#FFBE9D"/>
<path d="M259.904 372.882L259.594 373.067L258.646 373.558C257.829 373.997 256.636 374.605 255.198 375.4C253.76 376.194 252.126 377.276 250.296 378.509C248.466 379.743 246.424 381.01 244.479 382.565C243.527 383.319 242.765 384.299 242.257 385.421C241.821 386.489 241.62 387.644 241.669 388.801C241.801 390.766 242.163 392.707 242.747 394.581C243.122 395.872 243.379 397.196 243.515 398.536C243.571 399.024 243.571 399.518 243.515 400.006C243.515 400.006 243.515 399.482 243.401 398.536C243.227 397.217 242.943 395.917 242.551 394.649C241.922 392.76 241.532 390.794 241.391 388.801C241.332 387.604 241.533 386.409 241.979 385.303C242.512 384.134 243.301 383.11 244.283 382.312C245.252 381.539 246.261 380.823 247.306 380.165L250.165 378.256C251.979 377.039 253.646 375.974 255.067 375.197C256.489 374.419 257.731 373.845 258.581 373.507L259.545 373.067L259.904 372.882Z" fill="#EB996E"/>
<path d="M262.976 408.355C262.976 408.355 262.829 408.186 262.568 407.831L261.44 406.327L259.643 403.961C258.824 402.923 258.127 401.788 257.568 400.581C256.95 398.924 256.817 397.116 257.186 395.382C257.555 393.648 258.409 392.064 259.643 390.829C261.151 389.468 262.869 388.377 264.725 387.602C266.587 386.689 268.548 385.81 270.574 384.948C277.522 382.076 284.659 379.721 291.931 377.901C294.709 377.174 296.98 376.667 298.548 376.329L300.346 375.957L300.983 375.839C300.78 375.914 300.572 375.976 300.362 376.025L298.565 376.464C297.012 376.853 294.758 377.394 292.029 378.154C284.805 380.051 277.71 382.433 270.787 385.286C268.777 386.148 266.816 386.976 264.953 387.923C263.126 388.686 261.431 389.754 259.937 391.083C258.741 392.272 257.909 393.797 257.543 395.47C257.177 397.143 257.294 398.891 257.878 400.496C258.416 401.698 259.085 402.832 259.872 403.876C260.525 404.772 261.113 405.566 261.636 406.276C262.159 406.986 262.47 407.459 262.715 407.831C262.96 408.203 262.976 408.355 262.976 408.355Z" fill="#EB996E"/>
<path d="M298.009 387.365C297.773 387.546 297.521 387.704 297.257 387.838L295.149 388.987C293.368 389.951 290.885 391.235 288.058 392.502C285.648 393.583 283.182 394.525 280.672 395.325C279.708 395.629 278.924 395.849 278.368 395.984C278.091 396.076 277.807 396.144 277.519 396.187C277.776 396.042 278.051 395.934 278.336 395.866L280.59 395.088C282.502 394.412 285.1 393.398 287.927 392.181C290.754 390.965 293.238 389.663 295.051 388.801L297.192 387.754C297.451 387.596 297.725 387.466 298.009 387.365Z" fill="#EB996E"/>
<path d="M395.15 311.991C395.15 311.991 394.595 312.768 393.859 314.34C392.848 316.577 392.334 319.019 392.356 321.489C392.376 325.154 393.63 328.698 395.902 331.51C397.311 333.105 398.8 334.623 400.363 336.056C402.076 337.615 403.433 339.549 404.333 341.718C405.081 343.976 405.012 346.438 404.137 348.647C403.328 350.672 402.226 352.558 400.869 354.241C399.627 355.931 398.304 357.3 397.111 358.652C395.999 359.91 394.983 361.255 394.072 362.674C393.048 363.991 392.317 365.524 391.931 367.165C391.544 368.807 391.51 370.516 391.833 372.172C391.833 372.172 391.833 371.935 391.67 371.496C391.517 370.832 391.451 370.15 391.474 369.468C391.632 366.971 392.465 364.571 393.876 362.539C394.78 361.103 395.791 359.741 396.898 358.466C398.091 357.08 399.398 355.66 400.624 354.038C401.946 352.376 403.02 350.519 403.81 348.529C404.663 346.373 404.726 343.97 403.99 341.769C403.116 339.645 401.786 337.755 400.101 336.242C398.543 334.791 397.059 333.257 395.657 331.646C393.34 328.78 392.083 325.156 392.111 321.421C392.111 318.918 392.67 316.448 393.745 314.205C394.132 313.415 394.603 312.672 395.15 311.991Z" fill="#263238"/>
<path d="M410.134 311.18C410.134 311.18 409.579 311.974 408.843 313.546C407.838 315.778 407.329 318.215 407.356 320.677C407.358 324.351 408.614 327.906 410.902 330.716C412.177 332.271 413.778 333.69 415.347 335.262C417.07 336.805 418.428 338.736 419.317 340.907C420.062 343.17 419.998 345.634 419.137 347.853C418.321 349.874 417.22 351.759 415.869 353.447C414.611 355.137 413.288 356.489 412.111 357.857C410.999 359.113 409.978 360.452 409.056 361.863C407.671 363.85 406.824 366.184 406.605 368.623C406.583 369.524 406.66 370.426 406.833 371.31C406.759 371.089 406.699 370.863 406.654 370.634C406.508 369.975 406.447 369.298 406.474 368.623C406.632 366.124 407.458 363.719 408.86 361.677C409.775 360.249 410.791 358.894 411.899 357.621C413.075 356.235 414.383 354.815 415.624 353.193C416.941 351.531 418.01 349.674 418.794 347.684C419.647 345.529 419.717 343.127 418.99 340.924C418.107 338.81 416.779 336.928 415.101 335.414C413.467 333.843 411.948 332.423 410.641 330.817C408.323 327.946 407.066 324.317 407.095 320.576C407.104 318.079 407.663 315.617 408.729 313.377C409.125 312.597 409.595 311.861 410.134 311.18Z" fill="#263238"/>
<path d="M292.747 560.201C292.649 560.201 293.123 547.408 293.809 531.64C294.496 515.873 295.117 503.096 295.198 503.113C295.28 503.13 294.822 515.889 294.152 531.657C293.483 547.425 292.829 560.201 292.747 560.201Z" fill="#EB996E"/>
<path d="M264.332 439.62C261.213 436.518 258.257 433.246 255.476 429.818C258.595 432.919 261.551 436.191 264.332 439.62Z" fill="#EB996E"/>
<path d="M455.085 683.892L441.785 799.252H627.456L596.524 717.202L639.09 706.758C639.09 706.758 636.231 698.494 633.486 698.308C630.74 698.122 455.085 683.892 455.085 683.892Z" fill="#455A64"/>
<path d="M359.758 463.364C359.758 463.364 431.768 415.132 450.706 408.558C462.357 404.518 497.341 403.876 497.341 403.876L431.768 519.776L394.497 538.535L359.758 463.364Z" fill="#407BFF"/>
<path d="M720.725 544.417C698.731 489.492 663.143 427.435 652.603 416.805C642.064 406.175 577.439 397.589 577.439 397.589L492.7 407.104L424.758 503.434L454.513 653.658L453.5 655.652C451.276 660.084 450.253 665.055 450.541 670.039C450.829 675.023 452.416 679.834 455.134 683.96L633.502 698.393L633.731 556.145L720.725 544.417Z" fill="#407BFF"/>
<path d="M609.106 624.928C608.852 625.359 608.563 625.766 608.24 626.145C607.619 626.906 606.786 628.089 605.544 629.525C602.148 633.539 598.461 637.279 594.515 640.713C581.454 652.139 565.962 660.204 549.307 664.246C532.652 668.287 515.309 668.192 498.697 663.967C493.683 662.703 488.767 661.054 483.991 659.032C482.357 658.339 481.017 657.663 480.135 657.342C479.682 657.148 479.245 656.916 478.828 656.649C479.301 656.792 479.765 656.967 480.217 657.173C481.115 657.528 482.39 658.154 484.105 658.779C502.37 666.114 522.199 668.267 541.538 665.017C560.878 661.766 579.027 653.229 594.106 640.29C598.071 636.916 601.805 633.263 605.283 629.356C606.557 628.004 607.423 626.855 608.093 626.128C608.402 625.703 608.741 625.302 609.106 624.928Z" fill="#263238"/>
<path d="M633.681 550.788C633.532 550.343 633.422 549.885 633.355 549.419L632.57 545.498C631.9 541.983 630.936 537.048 629.825 531.015C627.587 518.695 624.515 501.812 621.132 483.171C620.708 480.839 620.299 478.523 619.891 476.242C619.482 473.96 618.976 471.73 618.747 469.482C618.184 465.181 618.031 460.834 618.289 456.503C618.557 452.591 619.131 448.708 620.005 444.892C620.828 441.584 621.882 438.342 623.159 435.192C625.013 430.636 627.411 426.338 630.299 422.399C631.28 420.962 632.195 419.982 632.75 419.272C633.015 418.892 633.328 418.551 633.681 418.258C633.681 418.258 633.42 418.647 632.881 419.39C632.342 420.134 631.492 421.08 630.577 422.601C627.804 426.58 625.501 430.886 623.714 435.428C622.481 438.559 621.47 441.778 620.691 445.061C619.846 448.84 619.299 452.683 619.057 456.553C618.824 460.83 618.994 465.121 619.564 469.364C619.793 471.594 620.332 473.791 620.708 476.124C621.083 478.456 621.525 480.704 621.949 483.053C625.217 501.643 628.224 518.543 630.397 530.947C631.443 537.014 632.276 541.966 632.864 545.481L633.502 549.436C633.597 549.881 633.657 550.333 633.681 550.788Z" fill="#263238"/>
<path d="M433.516 547.56C433.245 546.757 433.042 545.932 432.912 545.092C432.585 543.318 432.144 541.02 431.605 538.332C430.542 532.586 429.121 524.61 427.601 515.805C426.082 507 424.758 499.006 423.843 493.226C423.418 490.438 423.059 488.156 422.797 486.365C422.64 485.529 422.548 484.681 422.52 483.83C422.794 484.632 422.997 485.457 423.124 486.297C423.451 487.987 423.892 490.353 424.431 493.057C425.493 498.82 426.915 506.797 428.435 515.602C429.954 524.407 431.278 532.384 432.193 538.18C432.618 540.952 432.977 543.25 433.239 545.042C433.395 545.872 433.488 546.714 433.516 547.56Z" fill="#263238"/>
<path d="M639.809 468.62C640.282 465.348 641.031 462.124 642.048 458.987C642.802 455.773 643.83 452.634 645.12 449.608C644.636 452.879 643.882 456.102 642.865 459.241C642.124 462.457 641.101 465.596 639.809 468.62Z" fill="#FAFAFA"/>
<path d="M649.368 502.521C646.857 501.355 644.469 499.922 642.244 498.246C639.865 496.788 637.632 495.09 635.577 493.176C640.468 495.788 645.089 498.908 649.368 502.488V502.521Z" fill="#FAFAFA"/>
<path d="M667.407 489.424C667.025 486.502 667.091 483.536 667.603 480.636C667.836 477.698 668.503 474.814 669.58 472.084C669.826 472.084 669.041 475.972 668.453 480.754C667.865 485.537 667.652 489.424 667.407 489.424Z" fill="#FAFAFA"/>
<path d="M671.019 522.21C669.901 519.65 668.941 517.019 668.143 514.335C667.061 511.752 666.128 509.105 665.349 506.408C666.906 508.748 668.113 511.318 668.927 514.03C670.008 516.636 670.712 519.392 671.019 522.21Z" fill="#FAFAFA"/>
<path d="M657.031 542.49C652.571 539.048 648.454 535.153 644.744 530.863C649.214 534.293 653.331 538.189 657.031 542.49Z" fill="#FAFAFA"/>
<path d="M699.859 518.83C700.039 519.016 697.473 521.956 694.957 526.046C692.44 530.136 690.774 533.736 690.545 533.634C691.273 530.725 692.526 527.984 694.238 525.556C695.696 522.976 697.602 520.696 699.859 518.83Z" fill="#FAFAFA"/>
<path d="M653.159 435.665C651.392 434.612 649.78 433.303 648.371 431.778C646.765 430.471 645.341 428.941 644.139 427.232C645.903 428.304 647.519 429.617 648.943 431.136C650.544 432.437 651.963 433.961 653.159 435.665Z" fill="#FAFAFA"/>
<path d="M600.479 436.983C596.549 440.051 592.295 442.648 587.799 444.724C589.67 443.069 591.721 441.645 593.91 440.482C595.963 439.059 598.167 437.885 600.479 436.983Z" fill="#FAFAFA"/>
<path d="M591.263 484.692C589.534 482.925 588.01 480.957 586.72 478.828C585.202 476.868 583.913 474.729 582.88 472.456C586.131 476.179 588.944 480.286 591.263 484.692Z" fill="#FAFAFA"/>
<path d="M611.214 500.24C609.339 505.428 606.311 510.088 602.374 513.844C602.195 513.659 604.45 510.836 606.868 507.084C609.286 503.333 610.986 500.105 611.214 500.24Z" fill="#FAFAFA"/>
<path d="M562.733 503.721C562.488 503.806 561.099 500.02 558.861 495.677C556.622 491.334 554.318 488.055 554.514 487.886C558.509 492.35 561.323 497.804 562.684 503.721H562.733Z" fill="#FAFAFA"/>
<path d="M572.848 536.169C573.753 533.407 574.925 530.746 576.344 528.226C577.499 525.564 578.917 523.032 580.576 520.672C579.671 523.437 578.506 526.103 577.096 528.632C575.93 531.287 574.507 533.812 572.848 536.169Z" fill="#FAFAFA"/>
<path d="M606.688 560.505C605.737 557.505 605.048 554.422 604.629 551.295C603.949 548.225 603.544 545.096 603.42 541.949C604.375 544.943 605.064 548.02 605.479 551.143C606.16 554.218 606.565 557.353 606.688 560.505Z" fill="#FAFAFA"/>
<path d="M545.233 542.676C543.141 540.934 541.169 539.043 539.334 537.014C537.299 535.194 535.377 533.241 533.583 531.167C535.929 532.575 538.065 534.328 539.922 536.372C541.97 538.205 543.758 540.327 545.233 542.676Z" fill="#FAFAFA"/>
<path d="M517.978 495.694C514.301 499.892 510.21 503.681 505.772 507C509.449 502.802 513.54 499.012 517.978 495.694Z" fill="#FAFAFA"/>
<path d="M507.259 482.005C505.446 479.929 503.847 477.664 502.488 475.245C500.901 472.96 499.543 470.514 498.436 467.944C501.846 472.322 504.803 477.057 507.259 482.073V482.005Z" fill="#FAFAFA"/>
<path d="M465.69 505.597C463.494 503.06 461.51 500.335 459.758 497.451C457.782 494.741 456.038 491.857 454.546 488.832C456.742 491.36 458.721 494.08 460.461 496.961C462.448 499.674 464.198 502.564 465.69 505.597Z" fill="#FAFAFA"/>
<path d="M477.994 533.803C477.994 534.057 472.635 534.141 466.05 534.496C459.465 534.851 454.138 535.29 454.105 535.037C455.223 534.668 456.381 534.441 457.553 534.361C459.71 534.074 462.7 533.786 466.001 533.617C469.301 533.448 472.308 533.431 474.481 533.482C475.661 533.432 476.841 533.54 477.994 533.803Z" fill="#FAFAFA"/>
<path d="M481.017 451.99C481.246 451.99 480.314 456.232 479.465 461.438C478.615 466.643 478.158 470.918 477.912 470.902C477.828 464.455 478.88 458.047 481.017 451.99Z" fill="#FAFAFA"/>
<path d="M464.464 427.198C466.306 424.173 468.383 421.307 470.674 418.63C472.745 415.764 475.04 413.079 477.536 410.602C475.695 413.628 473.618 416.494 471.327 419.171C469.256 422.037 466.961 424.721 464.464 427.198Z" fill="#FAFAFA"/>
<path d="M447.863 450.317C447.683 450.486 443.827 446.43 438.729 441.867C433.631 437.304 429.284 433.755 429.431 433.552C430.532 434.072 431.56 434.743 432.487 435.547C434.301 436.899 436.735 438.927 439.301 441.208C441.866 443.49 444.039 445.805 445.575 447.495C446.455 448.327 447.224 449.276 447.863 450.317Z" fill="#FAFAFA"/>
<path d="M420.232 458.362C420.346 458.598 415.494 461.286 410.118 465.511C404.742 469.736 400.918 473.825 400.722 473.639C401.368 472.574 402.155 471.607 403.059 470.766C405.093 468.615 407.278 466.621 409.595 464.801C411.919 462.981 414.372 461.343 416.931 459.9C417.955 459.227 419.067 458.709 420.232 458.362Z" fill="#FAFAFA"/>
<path d="M383.157 482.089C382.928 482.089 382.961 477.509 382.748 471.865C382.536 466.22 382.176 461.725 382.421 461.725C383.2 465.045 383.595 468.449 383.598 471.865C383.861 475.279 383.713 478.713 383.157 482.089Z" fill="#FAFAFA"/>
<path d="M410.494 507.101C405.232 503.212 400.312 498.851 395.788 494.072C398.491 495.899 401.033 497.969 403.386 500.257C405.955 502.306 408.334 504.598 410.494 507.101Z" fill="#FAFAFA"/>
<path d="M453.713 471.273C450.653 472.409 447.504 473.268 444.301 473.842C441.155 474.707 437.939 475.273 434.693 475.532C437.758 474.395 440.912 473.536 444.121 472.963C447.264 472.107 450.473 471.542 453.713 471.273Z" fill="#FAFAFA"/>
<path d="M538.469 482.867C537.006 481.907 535.704 480.709 534.612 479.318C533.307 478.123 532.203 476.712 531.344 475.143C532.805 476.113 534.106 477.316 535.201 478.709C536.501 479.902 537.605 481.306 538.469 482.867Z" fill="#FAFAFA"/>
<path d="M576.492 460.035C575.069 461.955 573.423 463.687 571.59 465.189C569.935 466.911 568.086 468.42 566.083 469.685C569.17 466.04 572.677 462.799 576.524 460.035H576.492Z" fill="#FAFAFA"/>
<path d="M609.008 469.347C608.779 469.347 609.727 465.46 610.642 460.677C611.557 455.894 611.851 451.957 612.097 451.974C612.334 454.941 612.125 457.928 611.476 460.829C611.08 463.782 610.248 466.655 609.008 469.347Z" fill="#FAFAFA"/>
<path d="M441.948 523.714C440.914 522.532 440.1 521.162 439.546 519.675C438.749 518.313 438.195 516.813 437.912 515.247C438.965 516.424 439.797 517.794 440.363 519.286C441.141 520.653 441.678 522.153 441.948 523.714Z" fill="#FAFAFA"/>
<path d="M500.494 526.08C499.449 524.338 498.641 522.456 498.092 520.486C497.275 518.612 496.725 516.625 496.458 514.588C497.505 516.326 498.309 518.21 498.844 520.182C499.67 522.054 500.226 524.041 500.494 526.08Z" fill="#FAFAFA"/>
<path d="M532.423 509.451C532.243 509.282 533.191 507.862 534.547 506.273C535.903 504.685 537.129 503.519 537.308 503.671C537.488 503.823 536.524 505.259 535.184 506.848C533.844 508.436 532.684 509.603 532.423 509.451Z" fill="#FAFAFA"/>
<path d="M466.818 615.295C465.173 612.954 463.935 610.335 463.157 607.555C462.125 604.863 461.571 602 461.523 599.105C461.769 599.105 462.52 602.823 464.007 607.268C465.494 611.712 467.046 615.16 466.818 615.295Z" fill="#FAFAFA"/>
<path d="M491.736 617.222C492.144 614.717 492.824 612.268 493.762 609.921C494.429 607.482 495.372 605.134 496.572 602.924C496.167 605.422 495.493 607.865 494.563 610.208C493.885 612.651 492.936 615.004 491.736 617.222Z" fill="#FAFAFA"/>
<path d="M484.464 646.509C482.894 644.37 481.557 642.058 480.477 639.614C479.135 637.299 478.039 634.84 477.209 632.28C478.771 634.428 480.103 636.746 481.18 639.192C482.519 641.506 483.619 643.958 484.464 646.509Z" fill="#FAFAFA"/>
<path d="M530.625 638.093C527.801 637.646 525.051 636.792 522.455 635.558C519.768 634.597 517.23 633.236 514.922 631.519C517.599 632.44 520.223 633.518 522.782 634.747C525.46 635.695 528.079 636.813 530.625 638.093Z" fill="#FAFAFA"/>
<path d="M515.69 620.72C515.576 620.5 518.468 618.557 521.736 615.785C525.004 613.014 527.455 610.495 527.635 610.715C524.531 615.045 520.423 618.498 515.69 620.754V620.72Z" fill="#FAFAFA"/>
<path d="M554.155 633.074C554.008 633.277 551.034 631.384 547.129 629.424C543.224 627.463 539.89 626.365 539.956 626.128C545.205 627.085 550.11 629.484 554.155 633.074Z" fill="#FAFAFA"/>
<path d="M562.358 648.96C562.194 648.774 564.433 646.408 566.9 643.214C569.367 640.02 571.099 637.248 571.312 637.383C570.453 639.735 569.178 641.902 567.554 643.772C566.152 645.823 564.389 647.583 562.358 648.96Z" fill="#FAFAFA"/>
<path d="M478.452 679.65C475.734 678.308 473.146 676.701 470.723 674.851C468.133 673.254 465.698 671.404 463.452 669.324C466.169 670.667 468.757 672.274 471.18 674.124C473.77 675.721 476.205 677.571 478.452 679.65Z" fill="#FAFAFA"/>
<path d="M509.71 671.674C509.808 671.91 506.442 673.448 502.635 676.017C498.827 678.586 496.099 681.087 495.919 680.952C499.547 676.539 504.339 673.315 509.71 671.674Z" fill="#FAFAFA"/>
<path d="M537.668 684.45C536.288 683.026 535.105 681.411 534.154 679.65C532.975 678.046 532.033 676.269 531.36 674.378C533.934 677.418 536.059 680.835 537.668 684.518V684.45Z" fill="#FAFAFA"/>
<path d="M571.361 672.941C571.459 673.178 568.289 674.733 564.694 677.149C561.099 679.566 558.403 681.881 558.158 681.695C559.83 679.564 561.869 677.771 564.171 676.406C566.334 674.79 568.774 673.614 571.361 672.941Z" fill="#FAFAFA"/>
<path d="M586.933 657.816C586.704 657.934 585.74 656.126 583.91 654.655C582.08 653.185 580.266 652.441 580.331 652.205C581.866 652.182 583.347 652.79 584.449 653.895C585.746 654.81 586.639 656.22 586.933 657.816Z" fill="#FAFAFA"/>
<path d="M604.58 675.223C602.868 676.624 600.99 677.794 598.992 678.704C597.114 679.857 595.105 680.766 593.011 681.408C594.717 679.997 596.596 678.826 598.599 677.927C600.47 676.758 602.481 675.849 604.58 675.223Z" fill="#FAFAFA"/>
<path d="M620.479 684.45C620.234 684.45 621.132 680.58 621.721 675.814C622.309 671.048 622.374 667.111 622.636 667.111C623.084 670.03 623.057 673.006 622.554 675.916C622.335 678.862 621.634 681.748 620.479 684.45Z" fill="#FAFAFA"/>
<path d="M617.962 655.112C617.815 655.331 614.515 653.016 609.989 651.174C605.462 649.332 601.541 648.673 601.573 648.402C604.582 648.421 607.554 649.089 610.299 650.363C613.151 651.363 615.764 652.982 617.962 655.112Z" fill="#FAFAFA"/>
<path d="M582.537 566.64C577.639 564.046 573.012 560.936 568.73 557.362C573.622 559.967 578.248 563.076 582.537 566.64Z" fill="#FAFAFA"/>
<g opacity="0.3">
<path opacity="0.3" d="M499.661 664.339C499.139 663.284 498.979 662.078 499.208 660.917C499.436 659.756 500.04 658.71 500.919 657.951C502.731 656.486 504.918 655.599 507.21 655.399C518.909 653.506 531.442 656.785 542.406 652.171C549.759 649.061 555.478 642.724 559.792 635.862C564.106 629.001 567.521 621.497 571.785 614.568C575.609 608.332 580.495 602.383 587.161 599.713C593.828 597.043 602.505 598.75 606.116 605.121C609.727 611.493 607.309 619.317 603.926 625.604C594.367 643.349 577.145 655.906 558.37 661.888C539.596 667.871 519.383 667.719 500.004 664.17" fill="black"/>
</g>
<path d="M731.362 612.067L713.127 544.771L638.061 554.81L646.852 590.503L534.58 559.525L509.808 593.528L680.234 676.76C688.046 680.205 696.689 681.102 705.007 679.332C713.325 677.563 720.923 673.211 726.787 666.857C737.245 655.433 735.986 627.091 731.362 612.067Z" fill="#FFBE9D"/>
<path d="M421.082 547.56C418.565 546.867 415.526 546.309 413.663 548.168C412.927 549.065 412.494 550.185 412.429 551.359C412.365 552.533 412.672 553.697 413.304 554.675C414.464 556.686 415.346 556.973 418.418 558.055L448.304 565.068L459.742 555.807L421.082 547.56Z" fill="#EB996E"/>
<path d="M514.367 595.15C477.847 585.906 443.958 573.687 407.879 566.589C406.082 566.234 404.055 565.744 403.108 564.105C401.817 561.874 403.483 558.849 405.787 557.835C408.194 557.065 410.756 556.978 413.206 557.582C432.51 560.358 452.133 559.672 471.213 555.554C483.582 552.867 495.723 548.794 508.207 547.104C520.69 545.414 524.056 552.174 534.579 559.441" fill="#FFBE9D"/>
<path d="M534.579 559.525C531.541 554.013 527.122 549.449 521.788 546.315C516.454 543.18 510.402 541.59 504.268 541.713C496.801 541.966 489.661 544.771 482.455 546.783C475.249 548.794 467.373 550.044 460.412 547.205C457.749 546.123 455.265 544.45 452.422 544.045C449.579 543.639 446.18 545.076 445.673 547.982C445.281 550.179 446.654 552.275 448.141 553.914C453.369 559.627 470.02 565.981 483.141 565.305" fill="#FFBE9D"/>
<path d="M483.141 565.322C483.141 565.187 481.131 565.322 477.569 564.95C472.559 564.404 467.626 563.27 462.863 561.57C459.555 560.435 456.364 558.963 453.337 557.176C451.666 556.222 450.127 555.04 448.762 553.661C448.034 553.019 447.439 552.231 447.012 551.346C446.585 550.46 446.335 549.494 446.278 548.506C446.453 547.52 446.937 546.621 447.654 545.946C448.371 545.271 449.283 544.859 450.249 544.772C452.4 544.515 454.574 544.97 456.458 546.073C458.589 547.216 460.828 548.128 463.141 548.794C465.559 549.389 468.044 549.64 470.527 549.537C480.641 549.182 489.351 544.839 497.619 543.2C501.503 542.29 505.51 542.073 509.465 542.558C512.903 543.032 516.253 544.041 519.4 545.549C523.983 547.75 528.052 550.949 531.328 554.928C533.616 557.768 534.596 559.61 534.596 559.542C534.446 559.063 534.231 558.608 533.959 558.19C533.294 556.924 532.517 555.725 531.638 554.607C528.457 550.403 524.38 547.014 519.727 544.704C516.51 543.089 513.07 542 509.53 541.476C505.463 540.924 501.334 541.101 497.324 542C488.86 543.69 480.167 547.881 470.429 548.219C468.056 548.309 465.682 548.07 463.37 547.509C461.138 546.866 458.975 545.989 456.916 544.89C454.79 543.694 452.355 543.221 449.955 543.538C448.752 543.749 447.625 544.286 446.687 545.093C446.211 545.516 445.821 546.032 445.541 546.613C445.26 547.193 445.094 547.825 445.053 548.473C445.101 549.633 445.379 550.77 445.871 551.814C446.363 552.858 447.058 553.786 447.912 554.54C449.374 555.987 451.024 557.215 452.814 558.19C455.93 559.981 459.215 561.436 462.618 562.533C467.489 564.179 472.539 565.196 477.651 565.558C479.039 565.645 480.43 565.645 481.818 565.558C482.267 565.535 482.711 565.456 483.141 565.322Z" fill="#EB996E"/>
<path d="M680.283 601.234C680.283 601.234 680.153 601.234 679.908 601.116L678.846 600.727L674.989 599.274C671.721 598.057 667.179 596.452 662.13 594.812C657.081 593.173 652.456 591.821 649.058 590.908L645.087 589.844L643.992 589.556C643.747 589.556 643.616 589.438 643.633 589.421H644.009L645.12 589.641C646.067 589.844 647.44 590.165 649.123 590.587C652.505 591.466 657.13 592.767 662.195 594.407C667.26 596.046 671.787 597.702 675.038 598.97C676.672 599.612 677.963 600.153 678.862 600.541L679.891 600.998L680.283 601.234Z" fill="#EB996E"/>
<path d="M539.22 462.435C549.51 461.977 559.231 457.427 566.356 449.734C573.48 442.042 577.457 431.8 577.455 421.148V372.138L580.07 215.543L576.688 206.721L496.948 180.695C472.438 178.717 455.968 213.582 455.102 239C454.137 267.257 454.039 301.783 457.83 322.722C465.445 364.837 496.948 369.333 496.948 369.333L497.569 421.723C497.643 427.249 498.788 432.703 500.936 437.763C503.084 442.824 506.192 447.387 510.076 451.183C513.959 454.979 518.539 457.931 523.545 459.863C528.551 461.796 533.881 462.67 539.22 462.435Z" fill="#FFBE9D"/>
<path d="M465.69 266.462C465.715 267.879 466.274 269.23 467.248 270.227C468.221 271.225 469.532 271.79 470.902 271.803C471.572 271.834 472.241 271.728 472.871 271.489C473.501 271.25 474.078 270.884 474.569 270.412C475.061 269.94 475.456 269.372 475.733 268.74C476.009 268.108 476.161 267.426 476.18 266.733C476.151 265.319 475.59 263.972 474.617 262.979C473.644 261.985 472.335 261.422 470.968 261.409C470.298 261.373 469.628 261.476 468.998 261.712C468.367 261.948 467.789 262.312 467.297 262.783C466.805 263.254 466.409 263.822 466.133 264.454C465.857 265.086 465.706 265.769 465.69 266.462Z" fill="#263238"/>
<path d="M462.798 256.474C463.468 257.167 467.373 254.007 473.01 253.855C478.647 253.703 482.814 256.508 483.468 255.781C483.762 255.46 483.059 254.193 481.213 252.891C478.728 251.207 475.799 250.362 472.83 250.475C469.871 250.532 467.008 251.568 464.66 253.432C463.026 254.869 462.422 256.17 462.798 256.474Z" fill="#263238"/>
<path d="M520.413 266.462C520.438 267.876 520.995 269.225 521.965 270.221C522.934 271.218 524.242 271.785 525.609 271.803C526.28 271.839 526.951 271.736 527.582 271.499C528.214 271.262 528.793 270.896 529.285 270.423C529.777 269.95 530.173 269.38 530.448 268.746C530.723 268.112 530.872 267.427 530.887 266.733C530.865 265.319 530.309 263.97 529.338 262.975C528.367 261.98 527.058 261.418 525.69 261.409C525.021 261.373 524.351 261.476 523.721 261.712C523.09 261.948 522.512 262.312 522.02 262.783C521.528 263.254 521.132 263.822 520.856 264.454C520.58 265.086 520.429 265.769 520.413 266.462Z" fill="#263238"/>
<path d="M518.321 255.984C518.991 256.66 522.896 253.517 528.534 253.365C534.171 253.213 538.338 256.018 538.991 255.291C539.269 254.97 538.583 253.703 536.736 252.401C534.251 250.719 531.322 249.874 528.354 249.985C525.395 250.042 522.531 251.078 520.184 252.942C518.55 254.379 517.978 255.663 518.321 255.984Z" fill="#263238"/>
<path d="M498.991 299.857C498.991 299.535 495.478 298.995 489.775 298.403C488.337 298.302 486.965 298.048 486.687 297.034C486.522 295.498 486.819 293.946 487.537 292.59C488.795 288.939 490.102 285.12 491.491 281.114C496.981 264.772 500.919 251.37 500.282 251.134C499.645 250.897 494.661 263.978 489.187 280.303L485.396 291.846C484.906 293.536 484.007 295.496 484.808 297.71C485.029 298.233 485.364 298.695 485.786 299.061C486.208 299.428 486.707 299.688 487.243 299.823C488.044 300.032 488.868 300.128 489.694 300.11C495.429 300.262 498.975 300.195 498.991 299.857Z" fill="#263238"/>
<path d="M496.932 369.062C516.202 368.814 535.027 363.04 551.312 352.382C551.312 352.382 538.795 381.822 497.749 379.033L496.932 369.062Z" fill="#EB996E"/>
<path d="M516.246 233.22C516.851 234.792 522.472 233.879 529.106 234.521C535.74 235.163 541.165 236.87 542.014 235.417C542.374 234.724 541.41 233.254 539.204 231.783C536.274 229.981 532.986 228.891 529.588 228.599C526.191 228.306 522.774 228.817 519.596 230.093C517.178 231.107 516.001 232.392 516.246 233.22Z" fill="#263238"/>
<path d="M464.432 239.507C465.461 240.808 469.334 239.321 473.991 239.118C478.648 238.915 482.651 239.777 483.517 238.358C483.893 237.665 483.239 236.363 481.474 235.163C479.13 233.674 476.391 232.988 473.648 233.203C470.903 233.335 468.265 234.344 466.098 236.093C464.481 237.496 464.056 238.881 464.432 239.507Z" fill="#263238"/>
<path d="M482.88 183.585C484.776 196.826 489.848 209.366 497.635 220.058C505.421 230.751 515.673 239.256 527.455 244.796C526.747 241.416 526.05 238.036 525.364 234.656C535.462 251.928 556.9 266.395 570.691 272.242C574.955 274.05 580.413 272.428 584.286 269.859C589.71 266.276 590.037 258.232 588.893 251.675C585.348 231.158 573.583 212.805 558.256 199.285C542.929 185.765 524.236 176.74 504.906 170.69C499.791 169.084 496.997 167.986 491.932 169.76C486.867 171.535 480.233 177.501 482.684 182.402" fill="#263238"/>
<path d="M564.22 241.163C575.919 284.511 560.445 332.693 564.432 377.512C565.315 387.5 568.828 399.06 576.965 404.552C580.985 407.256 581.867 405.549 586.491 406.496C598.305 408.862 609.466 403.741 621.263 406.107C631.917 408.253 648.861 414.557 655.577 405.718C662.293 396.88 654.548 386.486 647.979 377.833C641.41 369.18 632.587 361.778 629.351 351.283C625.855 340.011 629.629 327.911 631.263 316.182C636.851 276.146 623.093 235.586 600.217 202.749C592.243 191.308 580.217 180.475 569.4 171.873C558.583 163.271 534.122 156.021 520.494 156.663C506.867 157.305 484.17 168.493 478.615 184.294" fill="#263238"/>
<path d="M518.975 216.421C518.893 216.573 519.792 217.199 521.524 218.23L524.612 220.089L521.981 217.486C515.578 211.32 510.108 204.193 505.756 196.344C497.586 181.793 496.344 167.851 495.69 168.02C495.478 168.02 495.478 171.501 496.556 176.994C498.015 184.115 500.54 190.957 504.04 197.274C508.389 205.376 514.308 212.464 521.426 218.094L521.899 217.351C520.053 216.641 519.04 216.32 518.975 216.421Z" fill="#455A64"/>
<path d="M593.142 396.778C593.221 395.85 593.221 394.917 593.142 393.99C593.142 392.164 593.142 389.477 593.224 386.013C593.767 376.259 595.156 366.576 597.374 357.08C599.891 344.98 604.057 330.801 606.557 314.475C607.854 305.92 608.254 297.245 607.75 288.601C607.311 279.214 605.038 270.015 601.067 261.561C596.935 253.172 590.882 245.955 583.436 240.538C576.41 235.147 569.073 230.989 562.374 226.663C550.447 219.074 539.471 209.992 529.694 199.623C523.138 192.603 517.128 185.059 511.72 177.061C509.808 174.222 508.354 171.991 507.39 170.453C506.925 169.64 506.377 168.881 505.756 168.189C506.098 169.053 506.513 169.885 506.998 170.673C507.831 172.363 509.204 174.594 511.017 177.433C516.235 185.657 522.146 193.388 528.681 200.535C538.386 211.169 549.369 220.472 561.361 228.218C568.093 232.612 575.381 236.803 582.227 242.092C589.407 247.327 595.25 254.286 599.253 262.372C603.098 270.566 605.32 279.473 605.789 288.567C606.3 297.072 605.944 305.608 604.727 314.036C602.358 330.158 598.322 344.456 595.969 356.607C593.852 366.201 592.664 375.989 592.423 385.827C592.381 388.501 592.48 391.175 592.717 393.838C592.746 394.832 592.888 395.819 593.142 396.778Z" fill="#455A64"/>
<path d="M455.069 203.73C453.615 214.661 452.764 225.67 452.52 236.701C460.788 229.806 469.138 222.759 475.396 213.853C481.654 204.946 485.56 193.809 483.926 182.943C477.938 184.764 472.52 188.185 468.217 192.86C463.914 197.536 460.879 203.302 459.416 209.577" fill="#263238"/>
<path d="M497.21 319.663C498.615 316.824 498.991 316.098 501.377 314.746C503.186 314.273 505.052 314.079 506.916 314.171C508.73 314.272 509.939 316.131 510.609 317.872C511.704 320.389 511.861 323.236 511.05 325.866C510.102 328.418 501.54 331.477 496.932 324.767" fill="#EB996E"/>
<path d="M504.252 329.212C504.72 329.181 505.19 329.181 505.657 329.212C506.898 329.151 508.092 328.71 509.089 327.945C510.445 326.67 511.32 324.939 511.556 323.06C511.747 321.943 511.663 320.794 511.312 319.719C510.961 318.644 510.354 317.677 509.546 316.909C507.78 315.474 505.582 314.727 503.337 314.796C502.435 314.832 501.55 315.066 500.741 315.483C499.933 315.9 499.219 316.489 498.648 317.213C497.886 318.234 497.386 319.437 497.193 320.711C497.159 321.199 497.071 321.681 496.932 322.148C496.798 321.665 496.77 321.156 496.85 320.661C496.941 319.285 497.399 317.963 498.174 316.841C498.733 316.071 499.432 315.423 500.233 314.932C501.169 314.366 502.222 314.041 503.305 313.985C504.476 313.939 505.646 314.093 506.769 314.441C507.974 314.785 509.091 315.403 510.037 316.25C511.03 317.138 511.742 318.316 512.079 319.63C512.414 320.809 512.476 322.054 512.259 323.263C512.055 324.332 511.697 325.363 511.197 326.322C510.678 327.379 509.87 328.253 508.873 328.837C507.876 329.42 506.735 329.686 505.592 329.601C505.122 329.586 504.662 329.452 504.252 329.212Z" fill="#263238"/>
<path d="M523.681 286.1C523.828 286.286 523.288 286.928 522.341 287.047C521.393 287.165 520.707 286.641 520.837 286.438C520.968 286.235 521.556 286.252 522.243 286.168C522.929 286.083 523.533 285.897 523.681 286.1Z" fill="#EB996E"/>
<path d="M532.684 285.61C532.455 285.61 532.145 285.154 532.014 284.495C531.883 283.835 531.932 283.244 532.161 283.193C532.39 283.143 532.7 283.633 532.848 284.309C532.995 284.985 532.978 285.61 532.684 285.61Z" fill="#EB996E"/>
<path d="M543.615 281.858C543.615 282.095 542.994 282.162 542.357 282.027C541.72 281.892 541.23 281.554 541.279 281.317C541.328 281.081 541.9 281.013 542.537 281.165C543.174 281.317 543.664 281.622 543.615 281.858Z" fill="#EB996E"/>
<path d="M528.354 295.497C528.125 295.497 527.929 294.956 527.929 294.297C527.929 293.637 528.125 293.097 528.354 293.097C528.583 293.097 528.779 293.621 528.779 294.297C528.779 294.973 528.583 295.497 528.354 295.497Z" fill="#EB996E"/>
<path d="M538.174 290.95C537.946 290.95 537.75 290.832 537.75 290.68C537.75 290.528 537.946 290.41 538.174 290.41C538.403 290.41 538.599 290.528 538.599 290.68C538.599 290.832 538.419 290.95 538.174 290.95Z" fill="#EB996E"/>
<path d="M467.847 287.739C467.847 287.976 467.03 288.145 466.213 287.739C465.396 287.334 464.889 286.573 465.069 286.421C465.249 286.269 465.837 286.607 466.556 286.945C467.275 287.283 467.863 287.486 467.847 287.739Z" fill="#EB996E"/>
<path d="M475.151 286.151C475.03 286.105 474.932 286.012 474.877 285.892C474.822 285.772 474.815 285.634 474.857 285.509C474.938 285.221 475.167 285.018 475.396 285.086C475.516 285.132 475.615 285.225 475.67 285.345C475.725 285.465 475.732 285.603 475.69 285.728C475.682 285.793 475.662 285.855 475.63 285.912C475.598 285.968 475.556 286.017 475.506 286.057C475.456 286.096 475.399 286.124 475.338 286.141C475.277 286.157 475.213 286.16 475.151 286.151Z" fill="#EB996E"/>
<path d="M471.246 297.102C471.017 297.102 470.772 296.73 470.706 296.223C470.641 295.716 470.706 295.26 471 295.226C471.295 295.192 471.474 295.581 471.556 296.105C471.638 296.629 471.491 297.068 471.246 297.102Z" fill="#EB996E"/>
<path d="M461.637 296.561C461.441 296.426 461.523 295.97 461.801 295.513C462.079 295.057 462.487 294.82 462.683 294.956C462.879 295.091 462.798 295.564 462.52 296.003C462.242 296.443 461.834 296.696 461.637 296.561Z" fill="#EB996E"/>
<path d="M425.003 674.834V753.25C425.002 759.835 423.482 766.324 420.569 772.179C417.656 778.034 413.434 783.086 408.255 786.915C401.473 791.918 393.35 794.606 385.019 794.604H283.711C276.126 794.61 268.696 792.383 262.289 788.182L258.793 785.85C253.108 782.126 248.423 776.978 245.173 770.884C241.923 764.789 240.211 757.945 240.198 750.985V674.834H425.003Z" fill="#263238"/>
<path d="M240.198 693.711H188.841V702.939L218.498 707.654C222.837 708.279 226.952 710.03 230.46 712.742C233.968 715.455 236.756 719.041 238.564 723.168C239.604 725.567 240.16 728.161 240.198 730.79C240.198 730.79 250.656 730.621 252.437 717.692C252.437 717.439 252.518 717.185 252.551 716.932C253.14 712.259 252.291 707.514 250.123 703.369C247.955 699.225 244.58 695.893 240.476 693.846L240.198 693.711Z" fill="#455A64"/>
<path d="M425.003 693.779H476.393V703.04L446.736 707.755C442.383 708.376 438.254 710.13 434.736 712.852C431.218 715.575 428.425 719.176 426.621 723.32C425.581 725.72 425.025 728.313 424.987 730.942C424.987 730.942 414.546 730.773 412.748 717.861L412.65 717.084C412.061 712.412 412.91 707.666 415.078 703.521C417.246 699.377 420.622 696.045 424.726 693.999L425.003 693.779Z" fill="#455A64"/>
<path d="M425.003 693.779C424.765 693.962 424.514 694.126 424.252 694.269C423.505 694.684 422.785 695.147 422.095 695.655C419.466 697.555 417.274 700.031 415.673 702.905C413.172 707.341 412.253 712.543 413.075 717.608C413.415 720.703 414.599 723.633 416.49 726.058C418.66 728.633 421.725 730.218 425.019 730.469L424.627 730.857C424.669 727.732 425.413 724.66 426.801 721.884C428.205 718.912 430.165 716.258 432.569 714.076C435.094 711.771 438.015 709.977 441.18 708.786C444.455 707.682 447.835 706.94 451.262 706.572L476.376 702.601L476.033 703.006C476.033 699.846 476.033 696.77 476.033 693.779L476.425 694.184L439.415 694.032L428.843 693.914H426.016C425.69 693.952 425.362 693.952 425.036 693.914H426H428.794L439.333 693.796L476.425 693.644H476.817V694.049C476.817 697.041 476.817 700.116 476.817 703.277V703.648H476.474L451.36 707.654C447.989 708.019 444.664 708.75 441.441 709.834C438.391 710.971 435.576 712.69 433.14 714.904C430.85 716.902 428.982 719.365 427.653 722.142C426.323 724.919 425.56 727.949 425.412 731.043V731.466H425.036C423.297 731.339 421.6 730.853 420.046 730.037C418.491 729.222 417.11 728.093 415.983 726.717C414.026 724.189 412.813 721.133 412.487 717.912C411.69 712.711 412.69 707.385 415.314 702.871C416.976 699.967 419.263 697.497 421.997 695.655C422.712 695.166 423.46 694.731 424.235 694.353C424.473 694.137 424.73 693.944 425.003 693.779Z" fill="#263238"/>
<path d="M421.702 676.929C421.573 677.033 421.43 677.119 421.278 677.183L420.003 677.842L415.101 680.326L411.523 682.101C410.199 682.726 408.712 683.301 407.144 683.96C403.99 685.244 400.46 686.884 396.375 688.168L390.019 690.365C387.797 691.109 385.428 691.666 383.009 692.359C378.189 693.829 372.911 694.827 367.388 696.01C355.314 698.172 343.089 699.302 330.836 699.39C318.582 699.31 306.356 698.18 294.283 696.01C288.76 694.843 283.482 693.829 278.662 692.376C276.244 691.666 273.875 691.109 271.652 690.365L265.296 688.185C261.211 686.9 257.682 685.261 254.512 683.994C252.878 683.318 251.472 682.743 250.149 682.135L246.57 680.36L241.668 677.876L240.394 677.217L239.985 676.963C240.146 676.994 240.3 677.051 240.443 677.132L241.75 677.707C242.943 678.281 244.626 679.059 246.75 680.039L250.361 681.729C251.685 682.321 253.172 682.861 254.74 683.52C257.91 684.737 261.44 686.343 265.541 687.576L271.897 689.706C274.103 690.433 276.473 690.973 278.875 691.649C283.695 693.086 288.956 694.049 294.479 695.198C306.507 697.333 318.682 698.463 330.885 698.578C343.088 698.464 355.263 697.334 367.29 695.198C372.813 694.049 378.075 693.069 382.895 691.632C385.297 690.956 387.666 690.416 389.872 689.689L396.228 687.56C400.313 686.326 403.859 684.72 407.013 683.487C408.647 682.844 410.068 682.287 411.408 681.712L415.003 680.022L419.938 677.69L421.245 677.098L421.702 676.929Z" fill="#455A64"/>
<path d="M421.817 683.419C421.817 683.419 421.686 683.521 421.392 683.673L420.118 684.349L415.216 686.833L411.637 688.523C410.314 689.131 408.827 689.706 407.274 690.382C404.104 691.666 400.575 693.306 396.49 694.59L390.134 696.77C387.911 697.514 385.559 698.071 383.14 698.781C378.238 700.252 373.026 701.249 367.503 702.432C355.434 704.593 343.214 705.724 330.967 705.812C318.713 705.725 306.488 704.595 294.414 702.432C288.875 701.249 283.597 700.252 278.777 698.781C276.358 698.088 273.989 697.531 271.767 696.787L265.411 694.607C261.326 693.323 257.796 691.683 254.642 690.399C253.008 689.74 251.587 689.165 250.263 688.54L246.734 686.867L241.832 684.382L240.557 683.723C240.263 683.571 240.116 683.487 240.133 683.47L240.59 683.639L241.897 684.23L246.897 686.563L250.508 688.253C251.848 688.827 253.319 689.385 254.904 690.027C258.058 691.261 261.603 692.849 265.688 694.1L272.045 696.212C274.25 696.939 276.62 697.48 279.038 698.156C283.842 699.592 289.12 700.573 294.626 701.722C306.66 703.856 318.84 704.986 331.048 705.102C343.252 704.995 355.427 703.864 367.454 701.722C372.96 700.573 378.222 699.609 383.042 698.173C385.444 697.497 387.813 696.956 390.036 696.229L396.376 694.1C400.477 692.849 404.006 691.261 407.176 690.027C408.81 689.385 410.232 688.827 411.555 688.236L415.167 686.546L420.167 684.213L421.474 683.639L421.817 683.419Z" fill="#455A64"/>
<path d="M386.964 797.038C400.444 794.875 407.372 787.27 411.294 773.75C412.733 769.58 412.842 765.043 411.604 760.804C410.166 756.681 406.343 753.216 402.094 753.385C396.964 753.605 393.304 758.624 391.212 763.525C389.12 768.426 387.568 773.851 383.532 777.146C379.496 780.442 371.931 779.462 371.065 774.206C371.056 772.815 370.914 771.428 370.64 770.065C369.496 766.888 364.627 767.057 362.47 769.643C360.313 772.229 360.248 775.947 360.346 779.343C360.444 782.74 360.558 786.391 358.712 789.213C355.983 793.421 350.28 793.894 345.378 793.928L316.424 794.215C316.424 794.215 321.326 796.7 334.3 796.7C351.914 796.649 386.964 797.038 386.964 797.038Z" fill="#407BFF"/>
<path d="M330.967 794.165C321.277 794.334 310.999 794.351 302.731 789.095C297.502 785.799 293.123 780.493 287.077 779.546C285.343 779.173 283.537 779.5 282.028 780.459C281.293 780.951 280.745 781.692 280.48 782.555C280.215 783.418 280.248 784.35 280.574 785.191C277.894 784.143 275.852 781.929 273.548 780.121C271.244 778.313 268.254 777.011 265.574 778.076C264.208 778.758 263.114 779.909 262.479 781.334C261.844 782.758 261.708 784.367 262.093 785.884C262.55 787.377 263.31 788.752 264.322 789.918C265.333 791.084 266.573 792.013 267.959 792.644C270.743 793.894 273.688 794.72 276.701 795.094L346.424 796.463C346.408 794.638 330.967 794.165 330.967 794.165Z" fill="#407BFF"/>
<path d="M276.554 799.252L276.701 795.28L386.964 797.038V799.252H276.554Z" fill="#455A64"/>
<path d="M379.921 753.25C378.617 750.99 377.88 748.428 377.778 745.798C377.675 743.168 378.21 740.554 379.333 738.192C380.33 736.147 382.372 734.119 384.48 734.812C386.588 735.505 387.013 738.192 386.964 740.355C386.85 745.07 383.565 754.602 379.921 753.216" fill="#407BFF"/>
<path d="M315.362 611.78C315.46 611.78 315.264 612.591 315.362 614.045C315.551 616.093 316.076 618.093 316.914 619.96C318.243 622.755 319.279 625.69 320.003 628.714C320.516 632.607 319.569 636.556 317.356 639.75C315.264 643.214 312.764 646.07 311.13 649.061C310.334 650.455 309.713 651.949 309.284 653.506C308.954 654.858 308.86 656.26 309.006 657.647C309.169 659.686 309.992 661.61 311.343 663.105C311.888 663.601 312.461 664.064 313.058 664.491C313.058 664.491 312.862 664.491 312.503 664.305C312.002 664.054 311.535 663.736 311.114 663.359C309.598 661.871 308.638 659.878 308.401 657.731C308.199 656.26 308.272 654.763 308.614 653.32C309.023 651.676 309.644 650.095 310.46 648.622C312.094 645.529 314.611 642.623 316.637 639.243C318.746 636.231 319.68 632.507 319.251 628.815C318.555 625.845 317.593 622.948 316.375 620.162C315.563 618.222 315.114 616.141 315.052 614.028C315.05 613.459 315.111 612.892 315.231 612.338C315.246 612.146 315.29 611.957 315.362 611.78Z" fill="#263238"/>
<path d="M332.551 610.259C332.65 610.259 332.437 611.07 332.551 612.524C332.749 614.57 333.273 616.569 334.104 618.439C335.432 621.236 336.472 624.17 337.208 627.193C337.708 631.088 336.756 635.033 334.545 638.228C332.453 641.693 329.97 644.549 328.319 647.54C327.524 648.933 326.909 650.427 326.489 651.985C326.146 653.34 326.046 654.75 326.195 656.142C326.365 658.175 327.188 660.091 328.532 661.584C329.078 662.08 329.65 662.542 330.248 662.97C330.248 662.97 330.051 662.97 329.708 662.784C329.196 662.544 328.722 662.225 328.303 661.838C326.792 660.348 325.838 658.356 325.607 656.21C325.408 654.74 325.474 653.244 325.803 651.799C326.208 650.164 326.83 648.594 327.649 647.135C329.283 644.042 331.783 641.135 333.826 637.772C335.931 634.752 336.858 631.023 336.424 627.328C335.743 624.353 334.78 621.454 333.548 618.675C332.736 616.735 332.287 614.653 332.225 612.54C332.223 611.972 332.284 611.405 332.404 610.85C332.453 610.445 332.519 610.242 332.551 610.259Z" fill="#263238"/>
<path d="M349.676 608.772C349.774 608.772 349.578 609.583 349.676 611.036C349.903 613.093 350.455 615.097 351.31 616.968C352.635 619.76 353.67 622.689 354.398 625.706C354.898 629.601 353.946 633.546 351.735 636.741C349.643 640.206 347.16 643.062 345.526 646.053C344.726 647.445 344.105 648.94 343.679 650.498C343.341 651.854 343.246 653.264 343.401 654.655C343.567 656.686 344.384 658.601 345.722 660.097C346.271 660.596 346.849 661.059 347.454 661.483C347.454 661.483 347.241 661.483 346.898 661.297C346.39 661.049 345.917 660.731 345.493 660.351C343.982 658.861 343.028 656.868 342.797 654.723C342.597 653.253 342.664 651.757 342.993 650.312C343.41 648.686 344.031 647.124 344.839 645.665C346.473 642.555 348.99 639.648 351.016 636.285C353.118 633.263 354.05 629.538 353.63 625.841C352.937 622.867 351.968 619.97 350.738 617.188C349.934 615.246 349.485 613.165 349.415 611.053C349.417 610.484 349.483 609.917 349.611 609.363C349.578 608.958 349.676 608.772 349.676 608.772Z" fill="#263238"/>
<path d="M111.112 799.86C111.112 799.86 89.0854 688.574 111.112 626.736H135.622C135.622 626.736 154.331 691.954 135.622 799.86H111.112Z" fill="#407BFF"/>
<g opacity="0.7">
<path opacity="0.7" d="M111.112 799.86C111.112 799.86 89.0854 688.574 111.112 626.736H135.622C135.622 626.736 154.331 691.954 135.622 799.86H111.112Z" fill="white"/>
</g>
<path d="M129.168 568.972C133.221 561.798 139.004 555.832 145.952 551.659C152.899 547.486 160.774 545.246 168.808 545.16C165.016 553.002 159.114 559.544 151.812 563.999C144.51 568.455 136.119 570.633 127.648 570.274" fill="#455A64"/>
<path d="M135.23 522.582C129.666 516.576 125.706 509.18 123.735 501.116C121.765 493.053 121.852 484.598 123.988 476.58C130.238 482.503 134.699 490.17 136.833 498.656C138.967 507.142 138.682 516.085 136.014 524.407" fill="#455A64"/>
<path d="M113.203 523.241C106.623 520.494 100.854 516.009 96.4732 510.235C92.0921 504.462 89.2518 497.6 88.2358 490.337C95.3474 492.758 101.62 497.276 106.282 503.335C110.944 509.394 113.793 516.73 114.478 524.441" fill="#455A64"/>
<path d="M107.174 473.825C106.058 468.601 106.287 463.166 107.838 458.062C109.39 452.958 112.209 448.364 116.014 444.74C117.539 450.17 117.496 455.942 115.891 461.347C114.285 466.751 111.187 471.553 106.978 475.16" fill="#455A64"/>
<path d="M124.184 612.405C124.694 607.081 126.545 601.988 129.552 597.634C132.56 593.281 136.619 589.82 141.325 587.596C141.146 593.241 139.376 598.709 136.232 603.327C133.088 607.945 128.707 611.512 123.628 613.588" fill="#455A64"/>
<path d="M97.5171 427.249C97.5171 427.249 101.929 444.301 107.076 472.304L109.037 483.306C109.707 487.126 110.279 491.131 110.932 495.271C112.288 503.518 113.4 512.408 114.641 521.737C116.88 540.445 118.824 561.063 120.017 582.78C121.21 604.496 121.373 625.232 121.112 644.076C120.867 653.506 120.704 662.463 120.23 670.829C120.001 675.003 119.87 679.059 119.609 682.929C119.347 686.799 119.07 690.534 118.808 694.083C116.651 722.509 114.069 739.933 114.069 739.933C114.069 739.933 114.069 739.662 114.069 739.121L114.38 736.84C114.609 734.711 114.919 731.652 115.328 727.714C115.54 725.737 115.785 723.54 116.03 721.123C116.275 718.706 116.488 716.053 116.733 713.281C117.19 707.637 117.844 701.232 118.253 694.134C118.481 690.562 118.726 686.844 118.988 682.98C119.233 679.093 119.347 675.054 119.543 670.879C120.001 662.514 120.132 653.574 120.36 644.16C120.573 625.334 120.36 604.614 119.2 582.915C118.04 561.215 116.079 540.665 113.89 521.923C112.681 512.594 111.602 503.721 110.262 495.457C109.625 491.334 109.069 487.328 108.416 483.492C107.762 479.656 107.125 476.005 106.52 472.49C105.36 465.477 104.037 459.173 102.991 453.63C102.435 450.858 101.929 448.272 101.471 445.906C101.014 443.54 100.491 441.377 100.066 439.434L98.1707 430.477C97.9583 429.48 97.8112 428.787 97.6805 428.144C97.5498 427.502 97.5171 427.249 97.5171 427.249Z" fill="#263238"/>
<path d="M151.684 467.809C151.66 468.017 151.61 468.222 151.537 468.417C151.406 468.84 151.243 469.414 151.014 470.107L148.955 476.698L147.436 481.464C146.929 483.154 146.373 485.114 145.802 487.159C144.641 491.266 143.203 495.897 141.896 501.119C141.226 503.721 140.507 506.442 139.772 509.281C139.037 512.121 138.4 515.095 137.664 518.171C136.161 524.306 134.87 530.93 133.448 537.893C130.801 551.853 128.367 567.299 126.586 583.625C124.805 599.95 124.02 615.582 123.661 629.812C123.661 636.927 123.448 643.687 123.661 650.008C123.661 653.168 123.661 656.227 123.841 659.168C124.02 662.108 124.086 664.914 124.2 667.618C124.363 673.009 124.805 677.859 125.066 682.118C125.229 684.247 125.36 686.241 125.491 688.067C125.622 689.892 125.834 691.548 125.965 693.137C126.243 696.094 126.455 698.409 126.602 700.032C126.602 700.792 126.7 701.384 126.749 701.84C126.764 702.043 126.764 702.246 126.749 702.448C126.694 702.25 126.655 702.046 126.635 701.84C126.635 701.401 126.504 700.809 126.422 700.066C126.226 698.376 125.965 696.128 125.622 693.17L125.082 688.185C124.919 686.36 124.756 684.382 124.576 682.253C124.265 677.977 123.792 673.127 123.579 667.736C123.448 665.049 123.301 662.226 123.171 659.286C123.04 656.345 123.007 653.286 122.926 650.126C122.729 643.789 122.926 637.012 122.926 629.846C123.236 615.599 124.086 599.933 125.785 583.574C127.484 567.215 130.033 551.751 132.73 537.775C134.184 530.812 135.491 524.255 137.027 518.053C137.779 514.977 138.432 511.985 139.184 509.146C139.935 506.307 140.671 503.603 141.373 501C142.713 495.795 144.184 491.165 145.393 487.075C146.014 485.03 146.602 483.137 147.125 481.38C147.648 479.622 148.236 478 148.759 476.648C149.723 473.842 150.393 471.578 150.981 470.09C151.243 469.381 151.439 468.823 151.586 468.4C151.596 468.2 151.629 468.001 151.684 467.809Z" fill="#263238"/>
<path d="M148.122 480.399C142.762 475.735 142.436 467.048 145.066 460.339C147.697 453.63 152.648 448.239 156.782 442.391C160.916 436.544 164.429 429.547 163.481 422.382C163.082 420.725 162.966 419.009 163.138 417.312C163.481 415.622 165.099 414.05 166.684 414.557C168.269 415.064 168.661 416.72 168.955 418.207C169.871 422.836 170.146 427.576 169.772 432.285C170.844 429.545 172.505 427.092 174.628 425.113C176.751 423.134 179.281 421.68 182.027 420.861C182.618 423.616 182.526 426.481 181.76 429.19C180.995 431.9 179.58 434.365 177.648 436.358C181.194 434.837 184.985 433.265 188.759 434.026C192.534 434.786 195.9 438.91 194.478 442.611C192.844 446.802 187.338 446.887 183.04 447.681C178.232 448.588 173.89 451.229 170.785 455.134C166.897 460.035 165.344 466.44 162.191 471.882C159.037 477.323 153.008 482.022 147.19 480.095" fill="#407BFF"/>
<path d="M102.125 446.025C108.056 442.205 109.559 433.637 107.86 426.624C106.161 419.61 102.01 413.543 98.7097 407.155C95.409 400.767 92.8763 393.331 94.7881 386.368C95.4207 384.755 95.7693 383.038 95.8175 381.298C95.7032 379.608 94.3306 377.783 92.6803 378.053C91.0299 378.323 90.4253 379.912 89.9351 381.433C88.3982 385.878 87.4848 390.527 87.2227 395.24C86.5359 392.369 85.2254 389.696 83.3907 387.427C81.556 385.158 79.2454 383.35 76.6344 382.143C75.6754 384.787 75.3777 387.639 75.7691 390.434C76.1604 393.229 77.2281 395.876 78.873 398.13C75.605 396.102 72.0102 394.007 68.1866 394.209C64.363 394.412 60.4578 398.012 61.3565 401.865C62.3696 406.259 67.8925 407.155 71.9938 408.625C76.6277 410.233 80.5669 413.475 83.1214 417.785C86.2913 423.193 86.9776 429.767 89.3469 435.614C91.7162 441.462 97.0594 447.022 103.089 445.923" fill="#407BFF"/>
<path d="M95.1147 529.697C95.3611 530.034 95.5643 530.404 95.7193 530.795L97.3533 534.006C98.0396 535.409 98.8566 537.133 99.7226 539.178C100.589 541.222 101.667 543.504 102.68 546.107C103.693 548.709 104.853 551.531 105.948 554.641C107.043 557.751 108.17 561.063 109.331 564.578C111.52 571.642 113.661 579.518 115.474 587.866C117.288 596.215 118.514 604.31 119.396 611.679C119.788 615.363 120.197 618.878 120.393 622.173C120.589 625.469 120.801 628.528 120.916 631.333C121.03 634.139 121.046 636.674 121.079 638.904C121.112 641.135 121.079 643.045 121.079 644.617C121.079 646.188 120.916 647.27 120.916 648.233C120.916 649.197 120.916 649.484 120.818 649.484C120.772 649.063 120.772 648.638 120.818 648.216C120.818 647.321 120.818 646.121 120.818 644.617C120.818 643.113 120.818 641.135 120.72 638.904C120.621 636.674 120.621 634.156 120.425 631.367C120.229 628.579 120.115 625.503 119.804 622.224C119.494 618.946 119.151 615.464 118.742 611.78C117.811 604.445 116.52 596.401 114.772 588.12C113.023 579.839 110.834 571.947 108.693 564.882C107.566 561.367 106.52 558.021 105.425 554.945C104.33 551.869 103.268 548.996 102.255 546.394C101.242 543.791 100.278 541.476 99.4448 539.431C98.6115 537.386 97.8108 535.629 97.2063 534.209L95.7683 530.913C95.5136 530.53 95.2947 530.123 95.1147 529.697Z" fill="#263238"/>
<path d="M99.1673 545.971C102.125 543.487 102.435 538.755 100.997 535.088C99.5594 531.42 96.9777 528.429 94.7718 525.201C92.5659 521.973 90.7195 518.137 91.2914 514.25C91.5207 513.341 91.598 512.398 91.5201 511.462C91.3404 510.532 90.4744 509.67 89.6084 509.924C88.7423 510.177 88.5136 511.09 88.3338 511.901C87.7975 514.413 87.6105 516.99 87.7783 519.557C87.2241 518.057 86.3478 516.708 85.2156 515.61C84.0833 514.512 82.7247 513.694 81.2423 513.219C80.9022 514.71 80.9305 516.266 81.3246 517.743C81.7186 519.219 82.4658 520.57 83.4972 521.669C81.6518 520.619 79.5521 520.144 77.4514 520.3C75.4089 520.672 73.5298 522.903 74.1834 524.914C75.0331 527.229 78.0396 527.314 80.3762 527.787C82.9847 528.339 85.325 529.816 86.994 531.961C89.0691 534.665 89.8698 538.164 91.5365 541.155C93.2032 544.146 96.4385 546.783 99.7065 545.769" fill="#407BFF"/>
</svg>
