<svg width="694" height="188" viewBox="0 0 694 188" fill="none" xmlns="http://www.w3.org/2000/svg">
<path d="M320.18 119.39C320.787 119.39 321.253 119.67 321.58 120.23C321.953 120.79 322.14 121.56 322.14 122.54C322.14 124.36 321.697 125.807 320.81 126.88C316.19 132.527 311.267 135.35 306.04 135.35C301.513 135.35 297.897 133.6 295.19 130.1C292.483 126.6 291.13 121.583 291.13 115.05C291.13 113.463 291.2 111.877 291.34 110.29C288.26 110.85 284.9 111.27 281.26 111.55C278.833 111.737 277.177 111.853 276.29 111.9C275.357 116.66 274.05 122.493 272.37 129.4C271.39 133.46 269.523 135.49 266.77 135.49C263.783 135.49 262.29 134.137 262.29 131.43C262.29 130.823 262.407 129.983 262.64 128.91C264.227 122.517 265.487 117.103 266.42 112.67L263.06 112.81C261.52 112.81 260.4 112.553 259.7 112.04C259 111.48 258.65 110.593 258.65 109.38C258.65 107.84 259.093 106.72 259.98 106.02C260.867 105.273 262.337 104.853 264.39 104.76L268.1 104.62C269.313 98.04 269.92 93.0233 269.92 89.57C269.92 87.3767 269.593 85.8833 268.94 85.09C268.287 84.2967 267.423 83.9 266.35 83.9C263.083 83.9 259.397 86.63 255.29 92.09C254.683 92.8833 254.007 93.28 253.26 93.28C252.607 93.28 252.047 92.9767 251.58 92.37C251.113 91.7633 250.88 90.9933 250.88 90.06C250.88 88.6133 251.463 87.0733 252.63 85.44C254.683 82.5933 257.273 80.26 260.4 78.44C263.527 76.5733 266.7 75.64 269.92 75.64C272.953 75.64 275.287 76.69 276.92 78.79C278.6 80.8433 279.44 84.0633 279.44 88.45C279.44 92.3233 278.88 97.5733 277.76 104.2L284.62 103.85C287.56 103.71 290.08 103.477 292.18 103.15C293.02 98.0167 294.303 93.21 296.03 88.73C297.757 84.25 299.903 80.61 302.47 77.81C305.037 75.01 307.907 73.61 311.08 73.61C313.413 73.61 315.257 74.5433 316.61 76.41C317.963 78.23 318.64 80.6333 318.64 83.62C318.64 95.1933 312.737 103.22 300.93 107.7C300.79 109.567 300.72 111.503 300.72 113.51C300.72 118.41 301.327 121.887 302.54 123.94C303.753 125.993 305.457 127.02 307.65 127.02C309.563 127.02 311.313 126.53 312.9 125.55C314.487 124.523 316.283 122.797 318.29 120.37C318.85 119.717 319.48 119.39 320.18 119.39ZM310.73 79.7C309.703 79.7 308.607 80.6333 307.44 82.5C306.32 84.3667 305.247 86.91 304.22 90.13C303.193 93.35 302.377 96.8733 301.77 100.7C305.503 99.16 308.257 96.9667 310.03 94.12C311.803 91.2733 312.69 87.61 312.69 83.13C312.69 82.0567 312.503 81.2167 312.13 80.61C311.757 80.0033 311.29 79.7 310.73 79.7ZM325.083 135.35C322.19 135.35 319.88 134.3 318.153 132.2C316.427 130.1 315.563 127.347 315.563 123.94C315.563 120.207 316.427 116.683 318.153 113.37C319.88 110.01 322.167 107.327 325.013 105.32C327.907 103.267 330.963 102.24 334.183 102.24C335.21 102.24 335.887 102.45 336.213 102.87C336.587 103.243 336.89 103.943 337.123 104.97C338.103 104.783 339.13 104.69 340.203 104.69C342.49 104.69 343.633 105.507 343.633 107.14C343.633 108.12 343.283 110.453 342.583 114.14C341.51 119.507 340.973 123.24 340.973 125.34C340.973 126.04 341.137 126.6 341.463 127.02C341.837 127.44 342.303 127.65 342.863 127.65C343.75 127.65 344.823 127.09 346.083 125.97C347.343 124.803 349.047 122.937 351.193 120.37C351.753 119.717 352.383 119.39 353.083 119.39C353.69 119.39 354.157 119.67 354.483 120.23C354.857 120.79 355.043 121.56 355.043 122.54C355.043 124.407 354.6 125.853 353.713 126.88C351.8 129.26 349.77 131.267 347.623 132.9C345.477 134.533 343.4 135.35 341.393 135.35C339.853 135.35 338.43 134.837 337.123 133.81C335.863 132.737 334.907 131.29 334.253 129.47C331.827 133.39 328.77 135.35 325.083 135.35ZM327.603 128.28C328.63 128.28 329.61 127.673 330.543 126.46C331.477 125.247 332.153 123.637 332.573 121.63L335.163 108.75C333.203 108.797 331.383 109.543 329.703 110.99C328.07 112.39 326.763 114.257 325.783 116.59C324.803 118.923 324.313 121.397 324.313 124.01C324.313 125.457 324.593 126.53 325.153 127.23C325.76 127.93 326.577 128.28 327.603 128.28ZM356.494 135.35C354.394 135.35 352.667 134.393 351.314 132.48C350.007 130.52 349.354 128.093 349.354 125.2C349.354 121.7 349.587 118.503 350.054 115.61C350.521 112.67 351.291 109.567 352.364 106.3C352.831 104.9 353.484 103.897 354.324 103.29C355.164 102.683 356.494 102.38 358.314 102.38C359.341 102.38 360.041 102.543 360.414 102.87C360.834 103.197 361.044 103.687 361.044 104.34C361.044 104.713 360.787 105.973 360.274 108.12C359.807 109.847 359.434 111.41 359.154 112.81C358.221 117.71 357.754 120.977 357.754 122.61C357.754 123.59 357.871 124.29 358.104 124.71C358.337 125.083 358.711 125.27 359.224 125.27C359.924 125.27 360.787 124.57 361.814 123.17C362.887 121.77 364.007 119.647 365.174 116.8C366.387 113.953 367.554 110.453 368.674 106.3C369.047 104.9 369.607 103.897 370.354 103.29C371.147 102.683 372.314 102.38 373.854 102.38C374.927 102.38 375.674 102.52 376.094 102.8C376.514 103.033 376.724 103.5 376.724 104.2C376.724 105.367 376.141 108.563 374.974 113.79C373.667 119.763 373.014 123.45 373.014 124.85C373.014 125.737 373.201 126.437 373.574 126.95C373.947 127.417 374.437 127.65 375.044 127.65C375.977 127.65 377.074 127.09 378.334 125.97C379.641 124.803 381.367 122.937 383.514 120.37C384.074 119.717 384.704 119.39 385.404 119.39C386.011 119.39 386.477 119.67 386.804 120.23C387.177 120.79 387.364 121.56 387.364 122.54C387.364 124.407 386.921 125.853 386.034 126.88C384.027 129.353 381.857 131.383 379.524 132.97C377.237 134.557 374.624 135.35 371.684 135.35C369.444 135.35 367.787 134.487 366.714 132.76C365.687 131.033 365.174 128.607 365.174 125.48C364.381 128.653 363.191 131.103 361.604 132.83C360.017 134.51 358.314 135.35 356.494 135.35ZM412.908 119.39C413.515 119.39 413.981 119.67 414.308 120.23C414.681 120.79 414.868 121.56 414.868 122.54C414.868 124.407 414.425 125.853 413.538 126.88C411.531 129.353 409.338 131.383 406.958 132.97C404.578 134.557 401.848 135.35 398.768 135.35C389.248 135.35 384.488 128.653 384.488 115.26C384.488 113.207 384.558 111.13 384.698 109.03H381.968C380.568 109.03 379.611 108.773 379.098 108.26C378.631 107.747 378.398 106.93 378.398 105.81C378.398 103.197 379.448 101.89 381.548 101.89H385.538C386.331 96.7567 387.545 92.0667 389.178 87.82C390.811 83.5733 392.771 80.19 395.058 77.67C397.391 75.15 399.888 73.89 402.548 73.89C404.508 73.89 406.048 74.7533 407.168 76.48C408.288 78.2067 408.848 80.3767 408.848 82.99C408.848 90.2233 405.815 96.5233 399.748 101.89H407.588C408.335 101.89 408.871 102.053 409.198 102.38C409.525 102.707 409.688 103.313 409.688 104.2C409.688 107.42 407.051 109.03 401.778 109.03H393.238C393.145 111.363 393.098 113.183 393.098 114.49C393.098 119.343 393.658 122.75 394.778 124.71C395.945 126.67 397.765 127.65 400.238 127.65C402.245 127.65 404.018 127.043 405.558 125.83C407.098 124.617 408.918 122.797 411.018 120.37C411.578 119.717 412.208 119.39 412.908 119.39ZM400.658 80.61C399.958 80.61 399.165 81.4967 398.278 83.27C397.438 84.9967 396.621 87.4233 395.828 90.55C395.081 93.63 394.451 97.06 393.938 100.84C396.691 98.46 398.745 95.8 400.098 92.86C401.498 89.8733 402.198 87.1667 402.198 84.74C402.198 81.9867 401.685 80.61 400.658 80.61ZM434.229 121.49C434.835 121.49 435.302 121.77 435.629 122.33C436.002 122.89 436.189 123.66 436.189 124.64C436.189 126.32 435.792 127.767 434.999 128.98C433.692 130.987 431.965 132.55 429.819 133.67C427.719 134.79 425.199 135.35 422.259 135.35C417.779 135.35 414.302 134.02 411.829 131.36C409.355 128.653 408.119 125.013 408.119 120.44C408.119 117.22 408.795 114.233 410.149 111.48C411.502 108.68 413.369 106.463 415.749 104.83C418.175 103.197 420.905 102.38 423.939 102.38C426.645 102.38 428.815 103.197 430.449 104.83C432.082 106.417 432.899 108.587 432.899 111.34C432.899 114.56 431.732 117.337 429.399 119.67C427.112 121.957 423.192 123.777 417.639 125.13C418.759 127.277 420.649 128.35 423.309 128.35C425.222 128.35 426.785 127.907 427.999 127.02C429.259 126.133 430.705 124.64 432.339 122.54C432.899 121.84 433.529 121.49 434.229 121.49ZM422.749 109.24C421.022 109.24 419.552 110.243 418.339 112.25C417.172 114.257 416.589 116.683 416.589 119.53V119.67C419.342 119.017 421.512 118.037 423.099 116.73C424.685 115.423 425.479 113.907 425.479 112.18C425.479 111.293 425.222 110.593 424.709 110.08C424.242 109.52 423.589 109.24 422.749 109.24ZM484.823 135.35C479.27 135.35 474.44 134.347 470.333 132.34C466.227 130.287 463.077 127.393 460.883 123.66C458.69 119.927 457.593 115.587 457.593 110.64C457.593 103.78 458.877 97.69 461.443 92.37C464.057 87.05 467.58 82.9433 472.013 80.05C476.447 77.11 481.37 75.64 486.783 75.64C491.823 75.64 495.65 76.9467 498.263 79.56C500.877 82.1267 502.183 85.5333 502.183 89.78C502.183 92.6267 501.67 94.9133 500.643 96.64C499.663 98.3667 498.24 99.23 496.373 99.23C495.067 99.23 494.04 98.9267 493.293 98.32C492.547 97.7133 492.173 96.8267 492.173 95.66C492.173 95.24 492.267 94.47 492.453 93.35C492.733 91.95 492.873 90.83 492.873 89.99C492.873 85.7433 490.61 83.62 486.083 83.62C483.003 83.62 480.063 84.6233 477.263 86.63C474.463 88.6367 472.2 91.6 470.473 95.52C468.747 99.3933 467.883 104.013 467.883 109.38C467.883 114.98 469.447 119.32 472.573 122.4C475.7 125.433 480.32 126.95 486.433 126.95C489.467 126.95 492.523 126.577 495.603 125.83C498.73 125.037 502.183 123.847 505.963 122.26C506.663 121.98 507.247 121.84 507.713 121.84C508.46 121.84 509.02 122.12 509.393 122.68C509.767 123.24 509.953 123.963 509.953 124.85C509.953 127.697 508.413 129.797 505.333 131.15C502.02 132.597 498.567 133.67 494.973 134.37C491.427 135.023 488.043 135.35 484.823 135.35ZM511.602 135.35C509.502 135.35 507.775 134.393 506.422 132.48C505.115 130.52 504.462 128.093 504.462 125.2C504.462 121.7 504.695 118.503 505.162 115.61C505.628 112.67 506.398 109.567 507.472 106.3C507.938 104.9 508.592 103.897 509.432 103.29C510.272 102.683 511.602 102.38 513.422 102.38C514.448 102.38 515.148 102.543 515.522 102.87C515.942 103.197 516.152 103.687 516.152 104.34C516.152 104.713 515.895 105.973 515.382 108.12C514.915 109.847 514.542 111.41 514.262 112.81C513.328 117.71 512.862 120.977 512.862 122.61C512.862 123.59 512.978 124.29 513.212 124.71C513.445 125.083 513.818 125.27 514.332 125.27C515.032 125.27 515.895 124.57 516.922 123.17C517.995 121.77 519.115 119.647 520.282 116.8C521.495 113.953 522.662 110.453 523.782 106.3C524.155 104.9 524.715 103.897 525.462 103.29C526.255 102.683 527.422 102.38 528.962 102.38C530.035 102.38 530.782 102.52 531.202 102.8C531.622 103.033 531.832 103.5 531.832 104.2C531.832 105.367 531.248 108.563 530.082 113.79C528.775 119.763 528.122 123.45 528.122 124.85C528.122 125.737 528.308 126.437 528.682 126.95C529.055 127.417 529.545 127.65 530.152 127.65C531.085 127.65 532.182 127.09 533.442 125.97C534.748 124.803 536.475 122.937 538.622 120.37C539.182 119.717 539.812 119.39 540.512 119.39C541.118 119.39 541.585 119.67 541.912 120.23C542.285 120.79 542.472 121.56 542.472 122.54C542.472 124.407 542.028 125.853 541.142 126.88C539.135 129.353 536.965 131.383 534.632 132.97C532.345 134.557 529.732 135.35 526.792 135.35C524.552 135.35 522.895 134.487 521.822 132.76C520.795 131.033 520.282 128.607 520.282 125.48C519.488 128.653 518.298 131.103 516.712 132.83C515.125 134.51 513.422 135.35 511.602 135.35ZM545.966 97.76C544.006 97.76 542.536 97.3167 541.556 96.43C540.576 95.4967 540.086 94.2133 540.086 92.58C540.086 90.9467 540.716 89.5933 541.976 88.52C543.282 87.4 544.892 86.84 546.806 86.84C548.532 86.84 549.932 87.26 551.006 88.1C552.079 88.94 552.616 90.13 552.616 91.67C552.616 93.5367 552.009 95.03 550.796 96.15C549.582 97.2233 547.972 97.76 545.966 97.76ZM545.406 135.35C542.372 135.35 540.156 134.277 538.756 132.13C537.402 129.983 536.726 127.137 536.726 123.59C536.726 121.49 536.982 118.807 537.496 115.54C538.056 112.227 538.756 109.147 539.596 106.3C540.016 104.807 540.576 103.78 541.276 103.22C541.976 102.66 543.096 102.38 544.636 102.38C547.016 102.38 548.206 103.173 548.206 104.76C548.206 105.927 547.762 108.633 546.876 112.88C545.756 118.013 545.196 121.49 545.196 123.31C545.196 124.71 545.382 125.783 545.756 126.53C546.129 127.277 546.759 127.65 547.646 127.65C548.486 127.65 549.536 127.067 550.796 125.9C552.056 124.733 553.736 122.89 555.836 120.37C556.396 119.717 557.026 119.39 557.726 119.39C558.332 119.39 558.799 119.67 559.126 120.23C559.499 120.79 559.686 121.56 559.686 122.54C559.686 124.407 559.242 125.853 558.356 126.88C553.736 132.527 549.419 135.35 545.406 135.35ZM567.042 136.89C564.615 136.89 562.749 136.33 561.442 135.21C560.182 134.09 559.552 132.83 559.552 131.43C559.552 130.217 559.995 129.167 560.882 128.28C561.769 127.393 563.075 126.95 564.802 126.95C565.409 126.95 566.109 127.02 566.902 127.16C567.742 127.253 568.372 127.323 568.792 127.37C568.745 126.157 568.465 125.013 567.952 123.94C567.485 122.867 566.879 121.84 566.132 120.86C565.385 119.833 564.685 118.947 564.032 118.2C562.585 120.953 561.139 123.24 559.692 125.06C558.292 126.88 556.752 128.607 555.072 130.24C554.232 131.08 553.345 131.5 552.412 131.5C551.665 131.5 551.059 131.243 550.592 130.73C550.125 130.17 549.892 129.493 549.892 128.7C549.892 127.767 550.219 126.903 550.872 126.11L551.782 124.99C554.349 121.817 556.285 119.203 557.592 117.15C558.385 115.797 559.319 114 560.392 111.76C561.465 109.473 562.515 107.117 563.542 104.69C564.429 102.637 566.272 101.61 569.072 101.61C570.379 101.61 571.289 101.727 571.802 101.96C572.315 102.193 572.572 102.567 572.572 103.08C572.572 103.36 572.479 103.803 572.292 104.41C572.105 105.017 571.849 105.623 571.522 106.23C570.682 107.91 570.262 109.333 570.262 110.5C570.262 111.2 570.495 111.97 570.962 112.81C571.475 113.65 572.245 114.7 573.272 115.96C574.765 117.92 575.885 119.6 576.632 121C577.425 122.353 577.822 123.847 577.822 125.48C577.822 125.947 577.775 126.6 577.682 127.44C579.969 126.553 582.652 124.197 585.732 120.37C586.292 119.717 586.922 119.39 587.622 119.39C588.229 119.39 588.695 119.67 589.022 120.23C589.395 120.79 589.582 121.56 589.582 122.54C589.582 124.313 589.139 125.76 588.252 126.88C585.919 129.773 583.679 131.757 581.532 132.83C579.432 133.857 576.819 134.417 573.692 134.51C571.825 136.097 569.609 136.89 567.042 136.89ZM596.915 136.89C594.488 136.89 592.622 136.33 591.315 135.21C590.055 134.09 589.425 132.83 589.425 131.43C589.425 130.217 589.868 129.167 590.755 128.28C591.642 127.393 592.948 126.95 594.675 126.95C595.282 126.95 595.982 127.02 596.775 127.16C597.615 127.253 598.245 127.323 598.665 127.37C598.618 126.157 598.338 125.013 597.825 123.94C597.358 122.867 596.752 121.84 596.005 120.86C595.258 119.833 594.558 118.947 593.905 118.2C592.458 120.953 591.012 123.24 589.565 125.06C588.165 126.88 586.625 128.607 584.945 130.24C584.105 131.08 583.218 131.5 582.285 131.5C581.538 131.5 580.932 131.243 580.465 130.73C579.998 130.17 579.765 129.493 579.765 128.7C579.765 127.767 580.092 126.903 580.745 126.11L581.655 124.99C584.222 121.817 586.158 119.203 587.465 117.15C588.258 115.797 589.192 114 590.265 111.76C591.338 109.473 592.388 107.117 593.415 104.69C594.302 102.637 596.145 101.61 598.945 101.61C600.252 101.61 601.162 101.727 601.675 101.96C602.188 102.193 602.445 102.567 602.445 103.08C602.445 103.36 602.352 103.803 602.165 104.41C601.978 105.017 601.722 105.623 601.395 106.23C600.555 107.91 600.135 109.333 600.135 110.5C600.135 111.2 600.368 111.97 600.835 112.81C601.348 113.65 602.118 114.7 603.145 115.96C604.638 117.92 605.758 119.6 606.505 121C607.298 122.353 607.695 123.847 607.695 125.48C607.695 125.947 607.648 126.6 607.555 127.44C609.842 126.553 612.525 124.197 615.605 120.37C616.165 119.717 616.795 119.39 617.495 119.39C618.102 119.39 618.568 119.67 618.895 120.23C619.268 120.79 619.455 121.56 619.455 122.54C619.455 124.313 619.012 125.76 618.125 126.88C615.792 129.773 613.552 131.757 611.405 132.83C609.305 133.857 606.692 134.417 603.565 134.51C601.698 136.097 599.482 136.89 596.915 136.89ZM622.938 97.76C620.978 97.76 619.508 97.3167 618.528 96.43C617.548 95.4967 617.058 94.2133 617.058 92.58C617.058 90.9467 617.688 89.5933 618.948 88.52C620.255 87.4 621.865 86.84 623.778 86.84C625.505 86.84 626.905 87.26 627.978 88.1C629.052 88.94 629.588 90.13 629.588 91.67C629.588 93.5367 628.982 95.03 627.768 96.15C626.555 97.2233 624.945 97.76 622.938 97.76ZM622.378 135.35C619.345 135.35 617.128 134.277 615.728 132.13C614.375 129.983 613.698 127.137 613.698 123.59C613.698 121.49 613.955 118.807 614.468 115.54C615.028 112.227 615.728 109.147 616.568 106.3C616.988 104.807 617.548 103.78 618.248 103.22C618.948 102.66 620.068 102.38 621.608 102.38C623.988 102.38 625.178 103.173 625.178 104.76C625.178 105.927 624.735 108.633 623.848 112.88C622.728 118.013 622.168 121.49 622.168 123.31C622.168 124.71 622.355 125.783 622.728 126.53C623.102 127.277 623.732 127.65 624.618 127.65C625.458 127.65 626.508 127.067 627.768 125.9C629.028 124.733 630.708 122.89 632.808 120.37C633.368 119.717 633.998 119.39 634.698 119.39C635.305 119.39 635.772 119.67 636.098 120.23C636.472 120.79 636.658 121.56 636.658 122.54C636.658 124.407 636.215 125.853 635.328 126.88C630.708 132.527 626.392 135.35 622.378 135.35ZM635.965 135.35C634.191 135.35 632.931 134.417 632.185 132.55C631.485 130.683 631.135 127.697 631.135 123.59C631.135 117.523 631.998 111.76 633.725 106.3C634.145 104.947 634.821 103.967 635.755 103.36C636.735 102.707 638.088 102.38 639.815 102.38C640.748 102.38 641.401 102.497 641.775 102.73C642.148 102.963 642.335 103.407 642.335 104.06C642.335 104.807 641.985 106.487 641.285 109.1C640.818 110.967 640.445 112.6 640.165 114C639.885 115.4 639.651 117.127 639.465 119.18C641.005 115.167 642.731 111.9 644.645 109.38C646.558 106.86 648.425 105.063 650.245 103.99C652.111 102.917 653.815 102.38 655.355 102.38C658.388 102.38 659.905 103.897 659.905 106.93C659.905 108.75 659.391 112.04 658.365 116.8C657.478 120.86 657.035 123.543 657.035 124.85C657.035 126.717 657.711 127.65 659.065 127.65C659.998 127.65 661.095 127.09 662.355 125.97C663.661 124.803 665.388 122.937 667.535 120.37C668.095 119.717 668.725 119.39 669.425 119.39C670.031 119.39 670.498 119.67 670.825 120.23C671.198 120.79 671.385 121.56 671.385 122.54C671.385 124.407 670.941 125.853 670.055 126.88C668.048 129.353 665.878 131.383 663.545 132.97C661.258 134.557 658.645 135.35 655.705 135.35C653.325 135.35 651.528 134.673 650.315 133.32C649.101 131.92 648.495 129.913 648.495 127.3C648.495 125.993 648.821 123.66 649.475 120.3C650.081 117.36 650.385 115.33 650.385 114.21C650.385 113.463 650.128 113.09 649.615 113.09C649.008 113.09 648.145 113.883 647.025 115.47C645.951 117.01 644.831 119.063 643.665 121.63C642.545 124.197 641.635 126.903 640.935 129.75C640.421 131.943 639.815 133.437 639.115 134.23C638.461 134.977 637.411 135.35 635.965 135.35ZM690.781 121.49C691.388 121.49 691.855 121.77 692.181 122.33C692.555 122.89 692.741 123.66 692.741 124.64C692.741 126.32 692.345 127.767 691.551 128.98C690.245 130.987 688.518 132.55 686.371 133.67C684.271 134.79 681.751 135.35 678.811 135.35C674.331 135.35 670.855 134.02 668.381 131.36C665.908 128.653 664.671 125.013 664.671 120.44C664.671 117.22 665.348 114.233 666.701 111.48C668.055 108.68 669.921 106.463 672.301 104.83C674.728 103.197 677.458 102.38 680.491 102.38C683.198 102.38 685.368 103.197 687.001 104.83C688.635 106.417 689.451 108.587 689.451 111.34C689.451 114.56 688.285 117.337 685.951 119.67C683.665 121.957 679.745 123.777 674.191 125.13C675.311 127.277 677.201 128.35 679.861 128.35C681.775 128.35 683.338 127.907 684.551 127.02C685.811 126.133 687.258 124.64 688.891 122.54C689.451 121.84 690.081 121.49 690.781 121.49ZM679.301 109.24C677.575 109.24 676.105 110.243 674.891 112.25C673.725 114.257 673.141 116.683 673.141 119.53V119.67C675.895 119.017 678.065 118.037 679.651 116.73C681.238 115.423 682.031 113.907 682.031 112.18C682.031 111.293 681.775 110.593 681.261 110.08C680.795 109.52 680.141 109.24 679.301 109.24Z" fill="#F83F05"/>
<ellipse cx="94.5" cy="94" rx="94.5" ry="94" fill="url(#paint0_linear_306_6)"/>
<path d="M25.4766 115.531C25.4766 115.115 25.6068 114.672 25.8672 114.203C26.1276 113.734 26.4661 113.292 26.8828 112.875C27.2995 112.458 27.7422 112.12 28.2109 111.859C28.6797 111.599 29.1224 111.469 29.5391 111.469C29.6432 111.469 29.7995 111.469 30.0078 111.469C30.2682 111.469 30.4505 111.495 30.5547 111.547C29.9297 112.224 29.5651 112.901 29.4609 113.578C29.4089 114.255 29.3828 114.984 29.3828 115.766C29.3828 116.964 29.6432 117.953 30.1641 118.734C30.737 119.464 31.4401 120.062 32.2734 120.531C33.1068 120.948 34.0182 121.234 35.0078 121.391C36.0495 121.599 37.0391 121.703 37.9766 121.703C41.8828 121.703 45.4766 121.182 48.7578 120.141C52.0391 119.047 55.0339 117.589 57.7422 115.766C60.5026 113.891 63.0026 111.703 65.2422 109.203C67.4818 106.651 69.5391 103.917 71.4141 101C73.3411 98.0312 75.0859 94.9583 76.6484 91.7812C78.263 88.6042 79.7734 85.401 81.1797 82.1719H80.9453H80.7891C80.737 82.1719 80.7109 82.1458 80.7109 82.0938C79.1484 82.0938 77.638 82.5365 76.1797 83.4219C74.7214 84.2552 73.263 85.2188 71.8047 86.3125C70.3464 87.3542 68.862 88.3177 67.3516 89.2031C65.8411 90.0365 64.2786 90.4531 62.6641 90.4531C62.6641 90.0365 63.263 89.2552 64.4609 88.1094C65.7109 86.9635 67.2734 85.6354 69.1484 84.125C71.0234 82.6146 73.0286 81.026 75.1641 79.3594C77.3516 77.6927 79.3568 76.1823 81.1797 74.8281C83.0547 73.4219 84.6172 72.276 85.8672 71.3906C87.1172 70.4531 87.7422 69.9844 87.7422 69.9844C88.7318 69.9844 89.4349 70.401 89.8516 71.2344C90.2682 72.0156 90.4766 72.8229 90.4766 73.6562C90.4766 73.8125 90.4505 74.0729 90.3984 74.4375C90.3984 74.8021 90.3724 75.0104 90.3203 75.0625C88.0286 80.0104 86.1276 84.125 84.6172 87.4062C83.1068 90.6875 81.8828 93.3177 80.9453 95.2969C80.0078 97.276 79.3047 98.7604 78.8359 99.75C78.4193 100.688 78.1328 101.312 77.9766 101.625C77.8724 101.938 77.8464 102.068 77.8984 102.016C78.0026 101.911 78.1328 101.833 78.2891 101.781C78.8099 101.573 79.8255 101.312 81.3359 101C82.8984 100.635 84.5391 100.271 86.2578 99.9062C88.0286 99.5417 89.6693 99.2292 91.1797 98.9688C92.7422 98.6562 93.8099 98.4479 94.3828 98.3438L95.3203 97.4062C97.612 92.6146 99.9557 87.875 102.352 83.1875C104.799 78.4479 107.195 73.7083 109.539 68.9688C110.529 68.1354 111.18 67.9531 111.492 68.4219C111.805 68.8385 111.935 69.5417 111.883 70.5312C111.883 71.5208 111.727 72.5885 111.414 73.7344C111.102 74.8281 110.815 75.6354 110.555 76.1562L91.3359 118.578C90.8672 119.62 90.3724 120.245 89.8516 120.453C89.3307 120.661 88.6797 120.766 87.8984 120.766C87.4297 120.766 86.9089 120.74 86.3359 120.688C85.763 120.635 85.3984 120.297 85.2422 119.672C86.2318 118.786 87.1432 117.667 87.9766 116.312C88.862 114.906 89.6172 113.474 90.2422 112.016C90.8672 110.505 91.3359 109.021 91.6484 107.562C92.013 106.052 92.1953 104.724 92.1953 103.578C92.0911 103.578 91.9349 103.552 91.7266 103.5C91.5703 103.448 91.4401 103.448 91.3359 103.5C89.7214 104.021 88.0026 104.438 86.1797 104.75C84.3568 105.01 82.5339 105.323 80.7109 105.688C78.888 106 77.1432 106.443 75.4766 107.016C73.8099 107.589 72.3516 108.422 71.1016 109.516C68.0807 112.068 65.4766 114.359 63.2891 116.391C61.1016 118.37 58.862 120.062 56.5703 121.469C54.2786 122.875 51.7005 123.943 48.8359 124.672C45.9714 125.401 42.4036 125.766 38.1328 125.766C36.4141 125.766 34.7995 125.583 33.2891 125.219C31.7786 124.906 30.4245 124.359 29.2266 123.578C28.0807 122.797 27.1693 121.755 26.4922 120.453C25.8151 119.151 25.4766 117.51 25.4766 115.531ZM105.32 112.328C105.685 109.307 106.336 106.443 107.273 103.734C108.211 100.974 109.357 98.3177 110.711 95.7656C112.065 93.1615 113.576 90.6094 115.242 88.1094C116.909 85.6094 118.68 83.0833 120.555 80.5312C121.648 79.125 122.846 77.6927 124.148 76.2344C125.451 74.776 126.857 73.4479 128.367 72.25C129.878 71.0521 131.492 70.0885 133.211 69.3594C134.982 68.5781 136.831 68.1875 138.758 68.1875C139.799 68.1875 140.607 68.2656 141.18 68.4219C141.753 68.526 142.169 68.7865 142.43 69.2031C142.742 69.5677 142.924 70.1146 142.977 70.8438C143.029 71.5729 143.029 72.5104 142.977 73.6562C142.977 74.9583 142.742 76.2865 142.273 77.6406C141.805 78.9948 141.154 80.2708 140.32 81.4688C139.487 82.6667 138.497 83.7344 137.352 84.6719C136.206 85.5573 134.982 86.2083 133.68 86.625V85.5312C133.68 84.4375 133.914 83.3958 134.383 82.4062C134.904 81.4167 135.477 80.4271 136.102 79.4375C136.727 78.3958 137.273 77.3281 137.742 76.2344C138.263 75.1406 138.523 73.9688 138.523 72.7188C137.951 72.7188 137.456 72.6927 137.039 72.6406C136.622 72.5365 136.232 72.4844 135.867 72.4844C135.555 72.4323 135.216 72.4844 134.852 72.6406C134.539 72.7448 134.148 73.0052 133.68 73.4219C131.128 75.5052 128.497 77.9531 125.789 80.7656C123.133 83.526 120.711 86.5208 118.523 89.75C116.336 92.9792 114.539 96.3646 113.133 99.9062C111.779 103.396 111.102 106.911 111.102 110.453C111.102 110.609 111.102 110.87 111.102 111.234C111.154 111.599 111.18 111.964 111.18 112.328C111.232 112.693 111.284 113.031 111.336 113.344C111.388 113.656 111.414 113.839 111.414 113.891C111.987 114.464 112.664 114.802 113.445 114.906C114.279 115.01 114.904 115.062 115.32 115.062C117.56 115.062 119.643 114.672 121.57 113.891C123.549 113.109 125.477 112.276 127.352 111.391C129.227 110.453 131.102 109.594 132.977 108.812C134.904 108.031 136.935 107.641 139.07 107.641C139.07 108.474 138.576 109.411 137.586 110.453C136.648 111.443 135.398 112.432 133.836 113.422C132.326 114.411 130.633 115.375 128.758 116.312C126.883 117.198 125.034 118.005 123.211 118.734C121.44 119.464 119.799 120.036 118.289 120.453C116.831 120.87 115.711 121.078 114.93 121.078C113.784 121.078 112.638 120.87 111.492 120.453C110.346 119.984 109.305 119.359 108.367 118.578C107.482 117.797 106.753 116.885 106.18 115.844C105.607 114.75 105.32 113.578 105.32 112.328Z" fill="white"/>
<defs>
<linearGradient id="paint0_linear_306_6" x1="94.5" y1="1.06082e-06" x2="94" y2="161" gradientUnits="userSpaceOnUse">
<stop offset="0.0001" stop-color="#4D77ED"/>
<stop offset="0.0002" stop-color="#F98809"/>
<stop offset="1" stop-color="#F83F05"/>
</linearGradient>
</defs>
</svg>
