<svg width="444" height="305" viewBox="0 0 444 305" fill="none" xmlns="http://www.w3.org/2000/svg">
<path d="M70.18 271.39C70.7867 271.39 71.2533 271.67 71.58 272.23C71.9533 272.79 72.14 273.56 72.14 274.54C72.14 276.36 71.6967 277.807 70.81 278.88C66.19 284.527 61.2667 287.35 56.04 287.35C51.5133 287.35 47.8967 285.6 45.19 282.1C42.4833 278.6 41.13 273.583 41.13 267.05C41.13 265.463 41.2 263.877 41.34 262.29C38.26 262.85 34.9 263.27 31.26 263.55C28.8333 263.737 27.1767 263.853 26.29 263.9C25.3567 268.66 24.05 274.493 22.37 281.4C21.39 285.46 19.5233 287.49 16.77 287.49C13.7833 287.49 12.29 286.137 12.29 283.43C12.29 282.823 12.4067 281.983 12.64 280.91C14.2267 274.517 15.4867 269.103 16.42 264.67L13.06 264.81C11.52 264.81 10.4 264.553 9.7 264.04C9 263.48 8.65 262.593 8.65 261.38C8.65 259.84 9.09333 258.72 9.98 258.02C10.8667 257.273 12.3367 256.853 14.39 256.76L18.1 256.62C19.3133 250.04 19.92 245.023 19.92 241.57C19.92 239.377 19.5933 237.883 18.94 237.09C18.2867 236.297 17.4233 235.9 16.35 235.9C13.0833 235.9 9.39667 238.63 5.29 244.09C4.68333 244.883 4.00667 245.28 3.26 245.28C2.60667 245.28 2.04667 244.977 1.58 244.37C1.11333 243.763 0.88 242.993 0.88 242.06C0.88 240.613 1.46333 239.073 2.63 237.44C4.68333 234.593 7.27333 232.26 10.4 230.44C13.5267 228.573 16.7 227.64 19.92 227.64C22.9533 227.64 25.2867 228.69 26.92 230.79C28.6 232.843 29.44 236.063 29.44 240.45C29.44 244.323 28.88 249.573 27.76 256.2L34.62 255.85C37.56 255.71 40.08 255.477 42.18 255.15C43.02 250.017 44.3033 245.21 46.03 240.73C47.7567 236.25 49.9033 232.61 52.47 229.81C55.0367 227.01 57.9067 225.61 61.08 225.61C63.4133 225.61 65.2567 226.543 66.61 228.41C67.9633 230.23 68.64 232.633 68.64 235.62C68.64 247.193 62.7367 255.22 50.93 259.7C50.79 261.567 50.72 263.503 50.72 265.51C50.72 270.41 51.3267 273.887 52.54 275.94C53.7533 277.993 55.4567 279.02 57.65 279.02C59.5633 279.02 61.3133 278.53 62.9 277.55C64.4867 276.523 66.2833 274.797 68.29 272.37C68.85 271.717 69.48 271.39 70.18 271.39ZM60.73 231.7C59.7033 231.7 58.6067 232.633 57.44 234.5C56.32 236.367 55.2467 238.91 54.22 242.13C53.1933 245.35 52.3767 248.873 51.77 252.7C55.5033 251.16 58.2567 248.967 60.03 246.12C61.8033 243.273 62.69 239.61 62.69 235.13C62.69 234.057 62.5033 233.217 62.13 232.61C61.7567 232.003 61.29 231.7 60.73 231.7ZM75.0833 287.35C72.1899 287.35 69.8799 286.3 68.1533 284.2C66.4266 282.1 65.5633 279.347 65.5633 275.94C65.5633 272.207 66.4266 268.683 68.1533 265.37C69.8799 262.01 72.1666 259.327 75.0133 257.32C77.9066 255.267 80.9633 254.24 84.1833 254.24C85.2099 254.24 85.8866 254.45 86.2133 254.87C86.5866 255.243 86.8899 255.943 87.1233 256.97C88.1033 256.783 89.1299 256.69 90.2033 256.69C92.4899 256.69 93.6333 257.507 93.6333 259.14C93.6333 260.12 93.2833 262.453 92.5833 266.14C91.51 271.507 90.9733 275.24 90.9733 277.34C90.9733 278.04 91.1366 278.6 91.4633 279.02C91.8366 279.44 92.3033 279.65 92.8633 279.65C93.7499 279.65 94.8233 279.09 96.0833 277.97C97.3433 276.803 99.0466 274.937 101.193 272.37C101.753 271.717 102.383 271.39 103.083 271.39C103.69 271.39 104.157 271.67 104.483 272.23C104.857 272.79 105.043 273.56 105.043 274.54C105.043 276.407 104.6 277.853 103.713 278.88C101.8 281.26 99.77 283.267 97.6233 284.9C95.4766 286.533 93.3999 287.35 91.3933 287.35C89.8533 287.35 88.4299 286.837 87.1233 285.81C85.8633 284.737 84.9066 283.29 84.2533 281.47C81.8266 285.39 78.7699 287.35 75.0833 287.35ZM77.6033 280.28C78.6299 280.28 79.6099 279.673 80.5433 278.46C81.4766 277.247 82.1533 275.637 82.5733 273.63L85.1633 260.75C83.2033 260.797 81.3833 261.543 79.7033 262.99C78.0699 264.39 76.7633 266.257 75.7833 268.59C74.8033 270.923 74.3133 273.397 74.3133 276.01C74.3133 277.457 74.5933 278.53 75.1533 279.23C75.7599 279.93 76.5766 280.28 77.6033 280.28ZM106.494 287.35C104.394 287.35 102.667 286.393 101.314 284.48C100.007 282.52 99.3541 280.093 99.3541 277.2C99.3541 273.7 99.5875 270.503 100.054 267.61C100.521 264.67 101.291 261.567 102.364 258.3C102.831 256.9 103.484 255.897 104.324 255.29C105.164 254.683 106.494 254.38 108.314 254.38C109.341 254.38 110.041 254.543 110.414 254.87C110.834 255.197 111.044 255.687 111.044 256.34C111.044 256.713 110.787 257.973 110.274 260.12C109.807 261.847 109.434 263.41 109.154 264.81C108.221 269.71 107.754 272.977 107.754 274.61C107.754 275.59 107.871 276.29 108.104 276.71C108.337 277.083 108.711 277.27 109.224 277.27C109.924 277.27 110.787 276.57 111.814 275.17C112.887 273.77 114.007 271.647 115.174 268.8C116.387 265.953 117.554 262.453 118.674 258.3C119.047 256.9 119.607 255.897 120.354 255.29C121.147 254.683 122.314 254.38 123.854 254.38C124.927 254.38 125.674 254.52 126.094 254.8C126.514 255.033 126.724 255.5 126.724 256.2C126.724 257.367 126.141 260.563 124.974 265.79C123.667 271.763 123.014 275.45 123.014 276.85C123.014 277.737 123.201 278.437 123.574 278.95C123.947 279.417 124.437 279.65 125.044 279.65C125.977 279.65 127.074 279.09 128.334 277.97C129.641 276.803 131.367 274.937 133.514 272.37C134.074 271.717 134.704 271.39 135.404 271.39C136.011 271.39 136.477 271.67 136.804 272.23C137.177 272.79 137.364 273.56 137.364 274.54C137.364 276.407 136.921 277.853 136.034 278.88C134.027 281.353 131.857 283.383 129.524 284.97C127.237 286.557 124.624 287.35 121.684 287.35C119.444 287.35 117.787 286.487 116.714 284.76C115.687 283.033 115.174 280.607 115.174 277.48C114.381 280.653 113.191 283.103 111.604 284.83C110.017 286.51 108.314 287.35 106.494 287.35ZM162.908 271.39C163.515 271.39 163.981 271.67 164.308 272.23C164.681 272.79 164.868 273.56 164.868 274.54C164.868 276.407 164.425 277.853 163.538 278.88C161.531 281.353 159.338 283.383 156.958 284.97C154.578 286.557 151.848 287.35 148.768 287.35C139.248 287.35 134.488 280.653 134.488 267.26C134.488 265.207 134.558 263.13 134.698 261.03H131.968C130.568 261.03 129.611 260.773 129.098 260.26C128.631 259.747 128.398 258.93 128.398 257.81C128.398 255.197 129.448 253.89 131.548 253.89H135.538C136.331 248.757 137.545 244.067 139.178 239.82C140.811 235.573 142.771 232.19 145.058 229.67C147.391 227.15 149.888 225.89 152.548 225.89C154.508 225.89 156.048 226.753 157.168 228.48C158.288 230.207 158.848 232.377 158.848 234.99C158.848 242.223 155.815 248.523 149.748 253.89H157.588C158.335 253.89 158.871 254.053 159.198 254.38C159.525 254.707 159.688 255.313 159.688 256.2C159.688 259.42 157.051 261.03 151.778 261.03H143.238C143.145 263.363 143.098 265.183 143.098 266.49C143.098 271.343 143.658 274.75 144.778 276.71C145.945 278.67 147.765 279.65 150.238 279.65C152.245 279.65 154.018 279.043 155.558 277.83C157.098 276.617 158.918 274.797 161.018 272.37C161.578 271.717 162.208 271.39 162.908 271.39ZM150.658 232.61C149.958 232.61 149.165 233.497 148.278 235.27C147.438 236.997 146.621 239.423 145.828 242.55C145.081 245.63 144.451 249.06 143.938 252.84C146.691 250.46 148.745 247.8 150.098 244.86C151.498 241.873 152.198 239.167 152.198 236.74C152.198 233.987 151.685 232.61 150.658 232.61ZM184.229 273.49C184.835 273.49 185.302 273.77 185.629 274.33C186.002 274.89 186.189 275.66 186.189 276.64C186.189 278.32 185.792 279.767 184.999 280.98C183.692 282.987 181.965 284.55 179.819 285.67C177.719 286.79 175.199 287.35 172.259 287.35C167.779 287.35 164.302 286.02 161.829 283.36C159.355 280.653 158.119 277.013 158.119 272.44C158.119 269.22 158.795 266.233 160.149 263.48C161.502 260.68 163.369 258.463 165.749 256.83C168.175 255.197 170.905 254.38 173.939 254.38C176.645 254.38 178.815 255.197 180.449 256.83C182.082 258.417 182.899 260.587 182.899 263.34C182.899 266.56 181.732 269.337 179.399 271.67C177.112 273.957 173.192 275.777 167.639 277.13C168.759 279.277 170.649 280.35 173.309 280.35C175.222 280.35 176.785 279.907 177.999 279.02C179.259 278.133 180.705 276.64 182.339 274.54C182.899 273.84 183.529 273.49 184.229 273.49ZM172.749 261.24C171.022 261.24 169.552 262.243 168.339 264.25C167.172 266.257 166.589 268.683 166.589 271.53V271.67C169.342 271.017 171.512 270.037 173.099 268.73C174.685 267.423 175.479 265.907 175.479 264.18C175.479 263.293 175.222 262.593 174.709 262.08C174.242 261.52 173.589 261.24 172.749 261.24ZM234.823 287.35C229.27 287.35 224.44 286.347 220.333 284.34C216.227 282.287 213.077 279.393 210.883 275.66C208.69 271.927 207.593 267.587 207.593 262.64C207.593 255.78 208.877 249.69 211.443 244.37C214.057 239.05 217.58 234.943 222.013 232.05C226.447 229.11 231.37 227.64 236.783 227.64C241.823 227.64 245.65 228.947 248.263 231.56C250.877 234.127 252.183 237.533 252.183 241.78C252.183 244.627 251.67 246.913 250.643 248.64C249.663 250.367 248.24 251.23 246.373 251.23C245.067 251.23 244.04 250.927 243.293 250.32C242.547 249.713 242.173 248.827 242.173 247.66C242.173 247.24 242.267 246.47 242.453 245.35C242.733 243.95 242.873 242.83 242.873 241.99C242.873 237.743 240.61 235.62 236.083 235.62C233.003 235.62 230.063 236.623 227.263 238.63C224.463 240.637 222.2 243.6 220.473 247.52C218.747 251.393 217.883 256.013 217.883 261.38C217.883 266.98 219.447 271.32 222.573 274.4C225.7 277.433 230.32 278.95 236.433 278.95C239.467 278.95 242.523 278.577 245.603 277.83C248.73 277.037 252.183 275.847 255.963 274.26C256.663 273.98 257.247 273.84 257.713 273.84C258.46 273.84 259.02 274.12 259.393 274.68C259.767 275.24 259.953 275.963 259.953 276.85C259.953 279.697 258.413 281.797 255.333 283.15C252.02 284.597 248.567 285.67 244.973 286.37C241.427 287.023 238.043 287.35 234.823 287.35ZM261.602 287.35C259.502 287.35 257.775 286.393 256.422 284.48C255.115 282.52 254.462 280.093 254.462 277.2C254.462 273.7 254.695 270.503 255.162 267.61C255.628 264.67 256.398 261.567 257.472 258.3C257.938 256.9 258.592 255.897 259.432 255.29C260.272 254.683 261.602 254.38 263.422 254.38C264.448 254.38 265.148 254.543 265.522 254.87C265.942 255.197 266.152 255.687 266.152 256.34C266.152 256.713 265.895 257.973 265.382 260.12C264.915 261.847 264.542 263.41 264.262 264.81C263.328 269.71 262.862 272.977 262.862 274.61C262.862 275.59 262.978 276.29 263.212 276.71C263.445 277.083 263.818 277.27 264.332 277.27C265.032 277.27 265.895 276.57 266.922 275.17C267.995 273.77 269.115 271.647 270.282 268.8C271.495 265.953 272.662 262.453 273.782 258.3C274.155 256.9 274.715 255.897 275.462 255.29C276.255 254.683 277.422 254.38 278.962 254.38C280.035 254.38 280.782 254.52 281.202 254.8C281.622 255.033 281.832 255.5 281.832 256.2C281.832 257.367 281.248 260.563 280.082 265.79C278.775 271.763 278.122 275.45 278.122 276.85C278.122 277.737 278.308 278.437 278.682 278.95C279.055 279.417 279.545 279.65 280.152 279.65C281.085 279.65 282.182 279.09 283.442 277.97C284.748 276.803 286.475 274.937 288.622 272.37C289.182 271.717 289.812 271.39 290.512 271.39C291.118 271.39 291.585 271.67 291.912 272.23C292.285 272.79 292.472 273.56 292.472 274.54C292.472 276.407 292.028 277.853 291.142 278.88C289.135 281.353 286.965 283.383 284.632 284.97C282.345 286.557 279.732 287.35 276.792 287.35C274.552 287.35 272.895 286.487 271.822 284.76C270.795 283.033 270.282 280.607 270.282 277.48C269.488 280.653 268.298 283.103 266.712 284.83C265.125 286.51 263.422 287.35 261.602 287.35ZM295.966 249.76C294.006 249.76 292.536 249.317 291.556 248.43C290.576 247.497 290.086 246.213 290.086 244.58C290.086 242.947 290.716 241.593 291.976 240.52C293.282 239.4 294.892 238.84 296.806 238.84C298.532 238.84 299.932 239.26 301.006 240.1C302.079 240.94 302.616 242.13 302.616 243.67C302.616 245.537 302.009 247.03 300.796 248.15C299.582 249.223 297.972 249.76 295.966 249.76ZM295.406 287.35C292.372 287.35 290.156 286.277 288.756 284.13C287.402 281.983 286.726 279.137 286.726 275.59C286.726 273.49 286.982 270.807 287.496 267.54C288.056 264.227 288.756 261.147 289.596 258.3C290.016 256.807 290.576 255.78 291.276 255.22C291.976 254.66 293.096 254.38 294.636 254.38C297.016 254.38 298.206 255.173 298.206 256.76C298.206 257.927 297.762 260.633 296.876 264.88C295.756 270.013 295.196 273.49 295.196 275.31C295.196 276.71 295.382 277.783 295.756 278.53C296.129 279.277 296.759 279.65 297.646 279.65C298.486 279.65 299.536 279.067 300.796 277.9C302.056 276.733 303.736 274.89 305.836 272.37C306.396 271.717 307.026 271.39 307.726 271.39C308.332 271.39 308.799 271.67 309.126 272.23C309.499 272.79 309.686 273.56 309.686 274.54C309.686 276.407 309.242 277.853 308.356 278.88C303.736 284.527 299.419 287.35 295.406 287.35ZM317.042 288.89C314.615 288.89 312.749 288.33 311.442 287.21C310.182 286.09 309.552 284.83 309.552 283.43C309.552 282.217 309.995 281.167 310.882 280.28C311.769 279.393 313.075 278.95 314.802 278.95C315.409 278.95 316.109 279.02 316.902 279.16C317.742 279.253 318.372 279.323 318.792 279.37C318.745 278.157 318.465 277.013 317.952 275.94C317.485 274.867 316.879 273.84 316.132 272.86C315.385 271.833 314.685 270.947 314.032 270.2C312.585 272.953 311.139 275.24 309.692 277.06C308.292 278.88 306.752 280.607 305.072 282.24C304.232 283.08 303.345 283.5 302.412 283.5C301.665 283.5 301.059 283.243 300.592 282.73C300.125 282.17 299.892 281.493 299.892 280.7C299.892 279.767 300.219 278.903 300.872 278.11L301.782 276.99C304.349 273.817 306.285 271.203 307.592 269.15C308.385 267.797 309.319 266 310.392 263.76C311.465 261.473 312.515 259.117 313.542 256.69C314.429 254.637 316.272 253.61 319.072 253.61C320.379 253.61 321.289 253.727 321.802 253.96C322.315 254.193 322.572 254.567 322.572 255.08C322.572 255.36 322.479 255.803 322.292 256.41C322.105 257.017 321.849 257.623 321.522 258.23C320.682 259.91 320.262 261.333 320.262 262.5C320.262 263.2 320.495 263.97 320.962 264.81C321.475 265.65 322.245 266.7 323.272 267.96C324.765 269.92 325.885 271.6 326.632 273C327.425 274.353 327.822 275.847 327.822 277.48C327.822 277.947 327.775 278.6 327.682 279.44C329.969 278.553 332.652 276.197 335.732 272.37C336.292 271.717 336.922 271.39 337.622 271.39C338.229 271.39 338.695 271.67 339.022 272.23C339.395 272.79 339.582 273.56 339.582 274.54C339.582 276.313 339.139 277.76 338.252 278.88C335.919 281.773 333.679 283.757 331.532 284.83C329.432 285.857 326.819 286.417 323.692 286.51C321.825 288.097 319.609 288.89 317.042 288.89ZM346.915 288.89C344.488 288.89 342.622 288.33 341.315 287.21C340.055 286.09 339.425 284.83 339.425 283.43C339.425 282.217 339.868 281.167 340.755 280.28C341.642 279.393 342.948 278.95 344.675 278.95C345.282 278.95 345.982 279.02 346.775 279.16C347.615 279.253 348.245 279.323 348.665 279.37C348.618 278.157 348.338 277.013 347.825 275.94C347.358 274.867 346.752 273.84 346.005 272.86C345.258 271.833 344.558 270.947 343.905 270.2C342.458 272.953 341.012 275.24 339.565 277.06C338.165 278.88 336.625 280.607 334.945 282.24C334.105 283.08 333.218 283.5 332.285 283.5C331.538 283.5 330.932 283.243 330.465 282.73C329.998 282.17 329.765 281.493 329.765 280.7C329.765 279.767 330.092 278.903 330.745 278.11L331.655 276.99C334.222 273.817 336.158 271.203 337.465 269.15C338.258 267.797 339.192 266 340.265 263.76C341.338 261.473 342.388 259.117 343.415 256.69C344.302 254.637 346.145 253.61 348.945 253.61C350.252 253.61 351.162 253.727 351.675 253.96C352.188 254.193 352.445 254.567 352.445 255.08C352.445 255.36 352.352 255.803 352.165 256.41C351.978 257.017 351.722 257.623 351.395 258.23C350.555 259.91 350.135 261.333 350.135 262.5C350.135 263.2 350.368 263.97 350.835 264.81C351.348 265.65 352.118 266.7 353.145 267.96C354.638 269.92 355.758 271.6 356.505 273C357.298 274.353 357.695 275.847 357.695 277.48C357.695 277.947 357.648 278.6 357.555 279.44C359.842 278.553 362.525 276.197 365.605 272.37C366.165 271.717 366.795 271.39 367.495 271.39C368.102 271.39 368.568 271.67 368.895 272.23C369.268 272.79 369.455 273.56 369.455 274.54C369.455 276.313 369.012 277.76 368.125 278.88C365.792 281.773 363.552 283.757 361.405 284.83C359.305 285.857 356.692 286.417 353.565 286.51C351.698 288.097 349.482 288.89 346.915 288.89ZM372.938 249.76C370.978 249.76 369.508 249.317 368.528 248.43C367.548 247.497 367.058 246.213 367.058 244.58C367.058 242.947 367.688 241.593 368.948 240.52C370.255 239.4 371.865 238.84 373.778 238.84C375.505 238.84 376.905 239.26 377.978 240.1C379.052 240.94 379.588 242.13 379.588 243.67C379.588 245.537 378.982 247.03 377.768 248.15C376.555 249.223 374.945 249.76 372.938 249.76ZM372.378 287.35C369.345 287.35 367.128 286.277 365.728 284.13C364.375 281.983 363.698 279.137 363.698 275.59C363.698 273.49 363.955 270.807 364.468 267.54C365.028 264.227 365.728 261.147 366.568 258.3C366.988 256.807 367.548 255.78 368.248 255.22C368.948 254.66 370.068 254.38 371.608 254.38C373.988 254.38 375.178 255.173 375.178 256.76C375.178 257.927 374.735 260.633 373.848 264.88C372.728 270.013 372.168 273.49 372.168 275.31C372.168 276.71 372.355 277.783 372.728 278.53C373.102 279.277 373.732 279.65 374.618 279.65C375.458 279.65 376.508 279.067 377.768 277.9C379.028 276.733 380.708 274.89 382.808 272.37C383.368 271.717 383.998 271.39 384.698 271.39C385.305 271.39 385.772 271.67 386.098 272.23C386.472 272.79 386.658 273.56 386.658 274.54C386.658 276.407 386.215 277.853 385.328 278.88C380.708 284.527 376.392 287.35 372.378 287.35ZM385.965 287.35C384.191 287.35 382.931 286.417 382.185 284.55C381.485 282.683 381.135 279.697 381.135 275.59C381.135 269.523 381.998 263.76 383.725 258.3C384.145 256.947 384.821 255.967 385.755 255.36C386.735 254.707 388.088 254.38 389.815 254.38C390.748 254.38 391.401 254.497 391.775 254.73C392.148 254.963 392.335 255.407 392.335 256.06C392.335 256.807 391.985 258.487 391.285 261.1C390.818 262.967 390.445 264.6 390.165 266C389.885 267.4 389.651 269.127 389.465 271.18C391.005 267.167 392.731 263.9 394.645 261.38C396.558 258.86 398.425 257.063 400.245 255.99C402.111 254.917 403.815 254.38 405.355 254.38C408.388 254.38 409.905 255.897 409.905 258.93C409.905 260.75 409.391 264.04 408.365 268.8C407.478 272.86 407.035 275.543 407.035 276.85C407.035 278.717 407.711 279.65 409.065 279.65C409.998 279.65 411.095 279.09 412.355 277.97C413.661 276.803 415.388 274.937 417.535 272.37C418.095 271.717 418.725 271.39 419.425 271.39C420.031 271.39 420.498 271.67 420.825 272.23C421.198 272.79 421.385 273.56 421.385 274.54C421.385 276.407 420.941 277.853 420.055 278.88C418.048 281.353 415.878 283.383 413.545 284.97C411.258 286.557 408.645 287.35 405.705 287.35C403.325 287.35 401.528 286.673 400.315 285.32C399.101 283.92 398.495 281.913 398.495 279.3C398.495 277.993 398.821 275.66 399.475 272.3C400.081 269.36 400.385 267.33 400.385 266.21C400.385 265.463 400.128 265.09 399.615 265.09C399.008 265.09 398.145 265.883 397.025 267.47C395.951 269.01 394.831 271.063 393.665 273.63C392.545 276.197 391.635 278.903 390.935 281.75C390.421 283.943 389.815 285.437 389.115 286.23C388.461 286.977 387.411 287.35 385.965 287.35ZM440.781 273.49C441.388 273.49 441.855 273.77 442.181 274.33C442.555 274.89 442.741 275.66 442.741 276.64C442.741 278.32 442.345 279.767 441.551 280.98C440.245 282.987 438.518 284.55 436.371 285.67C434.271 286.79 431.751 287.35 428.811 287.35C424.331 287.35 420.855 286.02 418.381 283.36C415.908 280.653 414.671 277.013 414.671 272.44C414.671 269.22 415.348 266.233 416.701 263.48C418.055 260.68 419.921 258.463 422.301 256.83C424.728 255.197 427.458 254.38 430.491 254.38C433.198 254.38 435.368 255.197 437.001 256.83C438.635 258.417 439.451 260.587 439.451 263.34C439.451 266.56 438.285 269.337 435.951 271.67C433.665 273.957 429.745 275.777 424.191 277.13C425.311 279.277 427.201 280.35 429.861 280.35C431.775 280.35 433.338 279.907 434.551 279.02C435.811 278.133 437.258 276.64 438.891 274.54C439.451 273.84 440.081 273.49 440.781 273.49ZM429.301 261.24C427.575 261.24 426.105 262.243 424.891 264.25C423.725 266.257 423.141 268.683 423.141 271.53V271.67C425.895 271.017 428.065 270.037 429.651 268.73C431.238 267.423 432.031 265.907 432.031 264.18C432.031 263.293 431.775 262.593 431.261 262.08C430.795 261.52 430.141 261.24 429.301 261.24Z" fill="#F83F05"/>
<ellipse cx="203.5" cy="94" rx="94.5" ry="94" fill="url(#paint0_linear_207_16)"/>
<path d="M134.477 115.531C134.477 115.115 134.607 114.672 134.867 114.203C135.128 113.734 135.466 113.292 135.883 112.875C136.299 112.458 136.742 112.12 137.211 111.859C137.68 111.599 138.122 111.469 138.539 111.469C138.643 111.469 138.799 111.469 139.008 111.469C139.268 111.469 139.451 111.495 139.555 111.547C138.93 112.224 138.565 112.901 138.461 113.578C138.409 114.255 138.383 114.984 138.383 115.766C138.383 116.964 138.643 117.953 139.164 118.734C139.737 119.464 140.44 120.062 141.273 120.531C142.107 120.948 143.018 121.234 144.008 121.391C145.049 121.599 146.039 121.703 146.977 121.703C150.883 121.703 154.477 121.182 157.758 120.141C161.039 119.047 164.034 117.589 166.742 115.766C169.503 113.891 172.003 111.703 174.242 109.203C176.482 106.651 178.539 103.917 180.414 101C182.341 98.0312 184.086 94.9583 185.648 91.7812C187.263 88.6042 188.773 85.401 190.18 82.1719H189.945H189.789C189.737 82.1719 189.711 82.1458 189.711 82.0938C188.148 82.0938 186.638 82.5365 185.18 83.4219C183.721 84.2552 182.263 85.2188 180.805 86.3125C179.346 87.3542 177.862 88.3177 176.352 89.2031C174.841 90.0365 173.279 90.4531 171.664 90.4531C171.664 90.0365 172.263 89.2552 173.461 88.1094C174.711 86.9635 176.273 85.6354 178.148 84.125C180.023 82.6146 182.029 81.026 184.164 79.3594C186.352 77.6927 188.357 76.1823 190.18 74.8281C192.055 73.4219 193.617 72.276 194.867 71.3906C196.117 70.4531 196.742 69.9844 196.742 69.9844C197.732 69.9844 198.435 70.401 198.852 71.2344C199.268 72.0156 199.477 72.8229 199.477 73.6562C199.477 73.8125 199.451 74.0729 199.398 74.4375C199.398 74.8021 199.372 75.0104 199.32 75.0625C197.029 80.0104 195.128 84.125 193.617 87.4062C192.107 90.6875 190.883 93.3177 189.945 95.2969C189.008 97.276 188.305 98.7604 187.836 99.75C187.419 100.688 187.133 101.312 186.977 101.625C186.872 101.938 186.846 102.068 186.898 102.016C187.003 101.911 187.133 101.833 187.289 101.781C187.81 101.573 188.826 101.312 190.336 101C191.898 100.635 193.539 100.271 195.258 99.9062C197.029 99.5417 198.669 99.2292 200.18 98.9688C201.742 98.6562 202.81 98.4479 203.383 98.3438L204.32 97.4062C206.612 92.6146 208.956 87.875 211.352 83.1875C213.799 78.4479 216.195 73.7083 218.539 68.9688C219.529 68.1354 220.18 67.9531 220.492 68.4219C220.805 68.8385 220.935 69.5417 220.883 70.5312C220.883 71.5208 220.727 72.5885 220.414 73.7344C220.102 74.8281 219.815 75.6354 219.555 76.1562L200.336 118.578C199.867 119.62 199.372 120.245 198.852 120.453C198.331 120.661 197.68 120.766 196.898 120.766C196.43 120.766 195.909 120.74 195.336 120.688C194.763 120.635 194.398 120.297 194.242 119.672C195.232 118.786 196.143 117.667 196.977 116.312C197.862 114.906 198.617 113.474 199.242 112.016C199.867 110.505 200.336 109.021 200.648 107.562C201.013 106.052 201.195 104.724 201.195 103.578C201.091 103.578 200.935 103.552 200.727 103.5C200.57 103.448 200.44 103.448 200.336 103.5C198.721 104.021 197.003 104.438 195.18 104.75C193.357 105.01 191.534 105.323 189.711 105.688C187.888 106 186.143 106.443 184.477 107.016C182.81 107.589 181.352 108.422 180.102 109.516C177.081 112.068 174.477 114.359 172.289 116.391C170.102 118.37 167.862 120.062 165.57 121.469C163.279 122.875 160.701 123.943 157.836 124.672C154.971 125.401 151.404 125.766 147.133 125.766C145.414 125.766 143.799 125.583 142.289 125.219C140.779 124.906 139.424 124.359 138.227 123.578C137.081 122.797 136.169 121.755 135.492 120.453C134.815 119.151 134.477 117.51 134.477 115.531ZM214.32 112.328C214.685 109.307 215.336 106.443 216.273 103.734C217.211 100.974 218.357 98.3177 219.711 95.7656C221.065 93.1615 222.576 90.6094 224.242 88.1094C225.909 85.6094 227.68 83.0833 229.555 80.5312C230.648 79.125 231.846 77.6927 233.148 76.2344C234.451 74.776 235.857 73.4479 237.367 72.25C238.878 71.0521 240.492 70.0885 242.211 69.3594C243.982 68.5781 245.831 68.1875 247.758 68.1875C248.799 68.1875 249.607 68.2656 250.18 68.4219C250.753 68.526 251.169 68.7865 251.43 69.2031C251.742 69.5677 251.924 70.1146 251.977 70.8438C252.029 71.5729 252.029 72.5104 251.977 73.6562C251.977 74.9583 251.742 76.2865 251.273 77.6406C250.805 78.9948 250.154 80.2708 249.32 81.4688C248.487 82.6667 247.497 83.7344 246.352 84.6719C245.206 85.5573 243.982 86.2083 242.68 86.625V85.5312C242.68 84.4375 242.914 83.3958 243.383 82.4062C243.904 81.4167 244.477 80.4271 245.102 79.4375C245.727 78.3958 246.273 77.3281 246.742 76.2344C247.263 75.1406 247.523 73.9688 247.523 72.7188C246.951 72.7188 246.456 72.6927 246.039 72.6406C245.622 72.5365 245.232 72.4844 244.867 72.4844C244.555 72.4323 244.216 72.4844 243.852 72.6406C243.539 72.7448 243.148 73.0052 242.68 73.4219C240.128 75.5052 237.497 77.9531 234.789 80.7656C232.133 83.526 229.711 86.5208 227.523 89.75C225.336 92.9792 223.539 96.3646 222.133 99.9062C220.779 103.396 220.102 106.911 220.102 110.453C220.102 110.609 220.102 110.87 220.102 111.234C220.154 111.599 220.18 111.964 220.18 112.328C220.232 112.693 220.284 113.031 220.336 113.344C220.388 113.656 220.414 113.839 220.414 113.891C220.987 114.464 221.664 114.802 222.445 114.906C223.279 115.01 223.904 115.062 224.32 115.062C226.56 115.062 228.643 114.672 230.57 113.891C232.549 113.109 234.477 112.276 236.352 111.391C238.227 110.453 240.102 109.594 241.977 108.812C243.904 108.031 245.935 107.641 248.07 107.641C248.07 108.474 247.576 109.411 246.586 110.453C245.648 111.443 244.398 112.432 242.836 113.422C241.326 114.411 239.633 115.375 237.758 116.312C235.883 117.198 234.034 118.005 232.211 118.734C230.44 119.464 228.799 120.036 227.289 120.453C225.831 120.87 224.711 121.078 223.93 121.078C222.784 121.078 221.638 120.87 220.492 120.453C219.346 119.984 218.305 119.359 217.367 118.578C216.482 117.797 215.753 116.885 215.18 115.844C214.607 114.75 214.32 113.578 214.32 112.328Z" fill="white"/>
<defs>
<linearGradient id="paint0_linear_207_16" x1="203.5" y1="1.06082e-06" x2="203" y2="161" gradientUnits="userSpaceOnUse">
<stop offset="0.0001" stop-color="#4D77ED"/>
<stop offset="0.0002" stop-color="#F98809"/>
<stop offset="1" stop-color="#F83F05"/>
</linearGradient>
</defs>
</svg>
