<svg width="57" height="59" viewBox="0 0 57 59" fill="none" xmlns="http://www.w3.org/2000/svg">
<path d="M55.1881 52.8888L44.6091 42.0125C48.0224 37.5287 49.8744 31.9918 49.8675 26.2917C49.8675 21.2153 48.4077 16.2529 45.6725 12.032C42.9374 7.81118 39.0498 4.52142 34.5014 2.57877C29.9531 0.636121 24.9482 0.127835 20.1196 1.11819C15.2911 2.10854 10.8558 4.55306 7.37463 8.1426C3.89345 11.7322 1.52274 16.3055 0.562284 21.2844C-0.39817 26.2632 0.0947695 31.4239 1.97877 36.1139C3.86277 40.8039 7.05321 44.8124 11.1466 47.6327C15.2401 50.453 20.0526 51.9583 24.9758 51.9583C30.5038 51.9654 35.8736 50.0558 40.222 46.5363L50.7699 57.4446C51.0591 57.7453 51.4032 57.984 51.7824 58.1469C52.1616 58.3098 52.5683 58.3936 52.979 58.3936C53.3898 58.3936 53.7964 58.3098 54.1756 58.1469C54.5548 57.984 54.8989 57.7453 55.1881 57.4446C55.4798 57.1463 55.7113 56.7915 55.8692 56.4005C56.0272 56.0096 56.1085 55.5902 56.1085 55.1667C56.1085 54.7431 56.0272 54.3238 55.8692 53.9328C55.7113 53.5419 55.4798 53.187 55.1881 52.8888ZM6.30694 26.2917C6.30694 22.4844 7.40185 18.7626 9.4532 15.597C11.5046 12.4313 14.4202 9.96398 17.8315 8.507C21.2428 7.05001 24.9965 6.6688 28.6179 7.41156C32.2393 8.15433 35.5657 9.98771 38.1766 12.6799C40.7875 15.372 42.5655 18.8021 43.2859 22.5362C44.0062 26.2703 43.6365 30.1409 42.2235 33.6583C40.8105 37.1758 38.4177 40.1823 35.3476 42.2975C32.2775 44.4127 28.6681 45.5417 24.9758 45.5417C20.0245 45.5417 15.276 43.5136 11.7749 39.9035C8.27383 36.2934 6.30694 31.3971 6.30694 26.2917Z" fill="#AAAAAA"/>
</svg>
